<?xml version="1.0" encoding="UTF-8"?>
<svg width="40px" height="40px" viewBox="0 0 40 40" version="1.1" xmlns="http://www.w3.org/2000/svg" xmlns:xlink="http://www.w3.org/1999/xlink">
    <!-- Generator: Sketch 49.1 (51147) - http://www.bohemiancoding.com/sketch -->
    <title>chuangyi</title>
    <desc>Created with Sketch.</desc>
    <defs></defs>
    <g id="Page-1" stroke="none" stroke-width="1" fill="none" fill-rule="evenodd">
        <g id="首页-手机端" transform="translate(-257.000000, -2243.000000)" fill="#000000" fill-rule="nonzero">
            <g id="Group-11" transform="translate(84.000000, 2162.000000)">
                <g id="chuangyi" transform="translate(178.000000, 83.000000)">
                    <path d="M17.5308982,30.52 L12.6938771,30.52 C12.0327016,30.52 11.4933215,29.9775 11.4933215,29.3125 C11.4933215,28.6475 12.0327016,28.105 12.6938771,28.105 L17.5134988,28.105 C18.1746744,28.105 18.7140544,28.6475 18.7140544,29.3125 C18.7140544,29.9775 18.1920737,30.52 17.5308982,30.52 Z M15.0427902,20.0725 C14.7470012,20.0725 14.4338128,19.95 14.1902218,19.705 L12.0848996,17.5875 L11.5455196,19.1625 C11.3019286,19.775 10.6407531,20.125 9.97957752,19.8975 C9.37060005,19.6525 9.02261292,18.9875 9.24880455,18.3225 L10.4493601,14.9275 C10.5711556,14.56 10.9365421,14.2625 11.3019286,14.14 C11.7195132,14.0175 12.1544971,14.1925 12.4502861,14.4375 L15.0427902,17.045 L17.6352943,14.4375 C17.9310834,14.14 18.3660673,14.0175 18.7836519,14.14 C19.2012364,14.2625 19.5144248,14.5075 19.6362203,14.9275 L20.8367759,18.3225 C21.0803669,18.935 20.7149804,19.6525 20.1060029,19.8975 C19.4970255,20.1425 18.7836519,19.775 18.5400609,19.1625 L18.0006808,17.5875 L15.8953587,19.705 C15.6517677,19.95 15.3559786,20.0725 15.0427902,20.0725 Z M27.8313172,8.365 C27.5355281,8.365 27.1701416,8.2425 26.9265507,7.9975 C26.5089661,7.5075 26.5089661,6.72 26.9787487,6.3 L28.0053107,5.3375 C28.4924927,4.9175 29.2754638,4.9175 29.6930483,5.39 C30.1106329,5.8625 30.1106329,6.6675 29.6408503,7.0875 L28.6142882,8.05 C28.4402947,8.2425 28.1445056,8.365 27.8313172,8.365 Z M15.0427902,3.885 C14.3816147,3.885 13.8422346,3.3425 13.8422346,2.6775 L13.8422346,1.2075 C13.8422346,0.5425 14.3816147,0 15.0427902,0 C15.7039658,0 16.2433458,0.5425 16.2433458,1.2075 L16.2433458,2.66 C16.2607452,3.3425 15.7213651,3.885 15.0427902,3.885 Z M2.27166263,8.365 C1.97587358,8.365 1.66268516,8.2425 1.41909417,8.0675 L0.392532143,7.105 C-0.094649836,6.685 -0.146847905,5.8975 0.340334074,5.4075 C0.757918628,4.9175 1.54088967,4.865 2.02807164,5.355 L3.05463367,6.3175 C3.54181565,6.7375 3.59401372,7.525 3.10683174,8.015 C2.93283818,8.2425 2.56745169,8.365 2.27166263,8.365 Z M26.5089661,14.98 C25.9695861,9.275 21.3239579,4.725 15.5995696,4.4275 L14.5208095,4.4275 C8.83122,4.725 4.13339377,9.275 3.59401372,14.98 C3.29822466,18.2 4.32478669,21.28 6.43010881,23.7125 C6.96948886,24.3775 7.38707342,25.0425 7.63066441,25.83 C7.8742554,26.565 7.99605089,27.2825 8.04824896,28.0175 L8.22224252,32.5675 C8.22224252,33.8975 9.30100262,35 10.6407531,35 L19.618821,35 C20.9411721,35 22.0373315,33.915 22.0373315,32.5675 L22.2113251,28.0175 C22.2113251,27.2825 22.3853186,26.565 22.6289096,25.83 C22.8725006,25.095 23.2900852,24.3775 23.8294652,23.7125 C25.8477906,21.2975 26.8047552,18.2 26.5089661,14.98 Z M21.9329354,22.1375 C21.1499643,23.0475 20.6105843,24.01 20.2451978,25.1125 C19.9494087,26.075 19.7580158,26.985 19.7058177,27.895 L19.5318242,31.36 C19.5318242,32.025 18.9924441,32.5675 18.3312686,32.5675 L11.7369125,32.5675 C11.075737,32.5675 10.5363569,32.025 10.5363569,31.36 L10.4145614,27.895 C10.3623634,26.985 10.1709704,26.0225 9.87518138,25.1125 C9.5097949,24.0275 8.97041485,23.0475 8.18744381,22.1375 C6.49970624,20.195 5.7167352,17.7625 5.96032619,15.225 C6.37791074,10.745 10.0665743,7.105 14.590407,6.86 L15.5473716,6.86 C20.0712042,7.105 23.7424684,10.675 24.1774523,15.225 C24.3340465,17.78 23.5510755,20.195 21.9329354,22.1375 Z" id="Shape"></path>
                </g>
            </g>
        </g>
    </g>
</svg>