<?xml version="1.0" encoding="UTF-8"?>
<svg width="40px" height="40px" viewBox="0 0 40 40" version="1.1" xmlns="http://www.w3.org/2000/svg" xmlns:xlink="http://www.w3.org/1999/xlink">
    <!-- Generator: Sketch 49.1 (51147) - http://www.bohemiancoding.com/sketch -->
    <title>chuangmei</title>
    <desc>Created with Sketch.</desc>
    <defs></defs>
    <g id="Page-1" stroke="none" stroke-width="1" fill="none" fill-rule="evenodd">
        <g id="首页-手机端" transform="translate(-246.000000, -4277.000000)" fill="#FFFFFF" fill-rule="nonzero">
            <g id="Group-16" transform="translate(90.000000, 4115.000000)">
                <g id="chuangmei" transform="translate(156.000000, 167.000000)">
                    <path d="M38.8720198,27.1222878 C38.7083606,26.8549734 38.1824359,26.7731513 37.2942076,26.8774003 C35.6594107,27.0774702 34.4731966,26.5741305 33.7336556,25.3665492 C33.1740443,24.452616 33.0292909,23.5343058 33.2997391,22.610606 C33.5701492,21.6873764 34.3704943,20.3689266 35.7007361,18.6561247 L36.5332401,17.5644038 C39.0035964,14.3458873 39.5102334,11.5463201 38.0528835,9.16620869 C36.5712808,6.74609057 32.2987636,6.94312193 29.2209394,8.18275198 C26.730837,3.33944107 21.4676565,0 15.3769371,0 C6.88434235,0 0,6.49187055 0,14.4999819 C0,22.5080933 6.88430416,29 15.3768989,29 C23.8690735,29 30.7534541,22.5081294 30.7534541,14.4999819 C30.7534541,12.7210929 30.4129971,11.0176596 29.7916269,9.44285563 C30.8253343,9.09686609 32.0721997,8.85230412 33.2353831,8.81193566 C34.7763767,8.75832808 36.1697906,9.06351509 36.7228327,9.96699451 C37.9578581,11.9838983 37.3618865,14.3655651 34.9361402,17.1117417 L34.4397391,17.6744404 C31.6032215,20.8855778 30.9241027,23.6978777 32.4017333,26.1110869 C32.9982396,27.0852834 33.9481122,27.7804457 35.2515804,28.1974056 C36.5550104,28.6140761 37.6591466,28.5757333 38.5641801,28.0830644 C39.01219,27.8392621 39.1147777,27.5190635 38.8720198,27.122324 L38.8720198,27.1222878 Z M8.32920291,17.5965249 C6.56007943,17.5965249 5.12591306,16.244073 5.12591306,14.5755823 C5.12591306,12.9071278 6.56007943,11.5547121 8.32920291,11.5547121 C10.0985555,11.5547121 11.5327601,12.9074172 11.5327601,14.5755823 C11.5327601,16.244073 10.0985937,17.5965249 8.32920291,17.5965249 Z M15.3768989,24.2422008 C13.6075463,24.2422008 12.1734563,22.889785 12.1734563,21.2213305 C12.1734563,19.5529484 13.6075463,18.2006773 15.3768989,18.2006773 C17.1459078,18.2006773 18.5802652,19.5529484 18.5802652,21.2213305 C18.5802652,22.889785 17.1460988,24.2422008 15.3768989,24.2422008 Z M14.1218983,14.5755462 C14.1218983,13.9083091 14.6957558,13.3673862 15.4032906,13.3673862 C16.1110546,13.3673862 16.6847212,13.9083091 16.6847212,14.5755462 C16.6847212,15.2428918 16.1110546,15.7839956 15.4033288,15.7839956 C14.6957558,15.7839956 14.1218983,15.2428918 14.1218983,14.5755462 Z M15.3769371,10.950415 C13.6075463,10.950415 12.1734563,9.59799929 12.1734563,7.92976182 C12.1734563,6.26112646 13.6075463,4.90885539 15.3768989,4.90885539 C17.1459078,4.90885539 18.5802652,6.26130732 18.5802652,7.92976182 C18.5802652,9.59821632 17.1460988,10.950415 15.3768989,10.950415 L15.3769371,10.950415 Z M22.4245185,17.5964888 C20.6550895,17.5964888 19.2209231,16.2440368 19.2209231,14.5755462 C19.2209231,12.9070917 20.6550513,11.5546759 22.4245185,11.5546759 C24.193642,11.5546759 25.6280375,12.9073811 25.6280375,14.5755462 C25.6280375,16.2440368 24.193642,17.5964888 22.4245185,17.5964888 Z" id="Shape"></path>
                </g>
            </g>
        </g>
    </g>
</svg>