<?xml version="1.0" encoding="UTF-8"?>
<svg width="9px" height="10px" viewBox="0 0 9 10" version="1.1" xmlns="http://www.w3.org/2000/svg" xmlns:xlink="http://www.w3.org/1999/xlink">
    <!-- Generator: Sketch 49.1 (51147) - http://www.bohemiancoding.com/sketch -->
    <title>dingwei</title>
    <desc>Created with Sketch.</desc>
    <defs></defs>
    <g id="Page-1" stroke="none" stroke-width="1" fill="none" fill-rule="evenodd">
        <g id="解决方案-手机端" transform="translate(-238.000000, -3078.000000)" fill="#4EAED5" fill-rule="nonzero">
            <g id="Group-10" transform="translate(238.000000, 3078.000000)">
                <g id="dingwei">
                    <path d="M4.5,0 C2.01445312,0 0,1.85436893 0,4.14239482 C0,5.28586839 0.50390625,6.3214671 1.31835938,7.07119741 L4.5,10 L7.68164062,7.07119741 C8.49609375,6.3214671 9,5.28586839 9,4.14239482 C9,1.85436893 6.98554688,0 4.5,0 Z M4.6875,6.20689655 C3.54811072,6.20689655 2.625,5.3578104 2.625,4.30978914 C2.625,3.26176789 3.54811072,2.4137931 4.6875,2.4137931 C5.82688928,2.4137931 6.75,3.26287925 6.75,4.31090051 C6.75,5.35892177 5.82688928,6.20689655 4.6875,6.20689655 Z" id="Shape"></path>
                </g>
            </g>
        </g>
    </g>
</svg>