<?xml version="1.0" encoding="UTF-8"?>
<svg width="40px" height="40px" viewBox="0 0 40 40" version="1.1" xmlns="http://www.w3.org/2000/svg" xmlns:xlink="http://www.w3.org/1999/xlink">
    <!-- Generator: Sketch 49.1 (51147) - http://www.bohemiancoding.com/sketch -->
    <title>duijie</title>
    <desc>Created with Sketch.</desc>
    <defs></defs>
    <g id="Page-1" stroke="none" stroke-width="1" fill="none" fill-rule="evenodd">
        <g id="首页-手机端" transform="translate(-92.000000, -4399.000000)" fill="#FFFFFF" fill-rule="nonzero">
            <g id="Group-16" transform="translate(90.000000, 4115.000000)">
                <g id="duijie" transform="translate(6.000000, 288.000000)">
                    <path d="M20.3741393,10.4977908 L10.5352928,10.4977908 C9.03025317,10.4977908 7.8150037,9.31987595 7.8150037,7.87117606 C7.8150037,6.41796307 9.03492718,5.24456123 10.5352928,5.24456123 L20.3741393,5.24456123 L20.3741393,1.02031474 C20.3741393,0.176368074 21.3743831,-0.302018837 22.0708145,0.212472736 L30.1849416,6.21938735 C31.2786661,7.02722935 31.269318,8.61583488 30.1709195,9.41916379 L22.0661405,15.3313037 C21.3697091,15.836769 20.3741393,15.3583822 20.3741393,14.5189486 L20.3741393,10.4977908 Z M1.49809442e-05,7.91179381 L1.49809442e-05,7.8305583 C1.49809442e-05,6.3999107 1.20124232,5.24456123 2.67823781,5.24456123 C4.15990734,5.24456123 5.35646064,6.40442379 5.35646059,7.8305583 L5.35646059,7.91179381 C5.35646059,9.34244141 4.15523325,10.4977909 2.67823781,10.4977908 C1.20124232,10.4977908 1.49809442e-05,9.34244137 1.49809442e-05,7.91179381 Z M10.6240995,29.9807739 C10.6240995,30.8202075 9.6285298,31.2985944 8.93209838,30.793129 L0.827319424,24.8809891 C-0.271079121,24.0821733 -0.275753167,22.4890547 0.813297288,21.6812127 L8.92742438,15.674298 C9.61918175,15.1598064 10.6240995,15.6381934 10.6240995,16.4821401 L10.6240995,20.7063866 L20.462946,20.7063866 C21.9679857,20.7063866 23.1832352,21.8843014 23.1832352,23.3330013 C23.1832352,24.7862143 21.9633117,25.9596162 20.462946,25.9596162 L10.6240995,25.9596162 L10.6240995,29.9807739 Z M28.3200011,25.9596162 C26.8383316,25.9596162 25.6417783,24.7997536 25.6417783,23.3736191 L25.6417783,23.2923836 C25.6417783,21.861736 26.8430056,20.7063865 28.3200011,20.7063866 C29.8016706,20.7063866 30.9982239,21.8662491 30.9982239,23.2923836 L30.9982239,23.3736191 C30.9982239,24.7997536 29.7969965,25.9596162 28.3200011,25.9596162 Z" id="Shape"></path>
                </g>
            </g>
        </g>
    </g>
</svg>