<?xml version="1.0" encoding="UTF-8"?>
<svg width="38px" height="36px" viewBox="0 0 38 36" version="1.1" xmlns="http://www.w3.org/2000/svg" xmlns:xlink="http://www.w3.org/1999/xlink">
    <!-- Generator: Sketch 49.1 (51147) - http://www.bohemiancoding.com/sketch -->
    <title>fanghuidingbu</title>
    <desc>Created with Sketch.</desc>
    <defs></defs>
    <g id="Page-1" stroke="none" stroke-width="1" fill="none" fill-rule="evenodd">
        <g id="首页-手机端" transform="translate(-322.000000, -3944.000000)">
            <g id="Group-15" transform="translate(322.000000, 3944.000000)">
                <g id="fanghuidingbu">
                    <polygon id="Rectangle-12-Copy" fill-opacity="0.509199502" fill="#000000" points="0 10.4227889 19 0 38 10.4227889 38 36 0 36"></polygon>
                    <path d="M22.7012399,28.6775183 L22.7012399,18.2954117 C22.7012399,17.6540761 23.2211451,17.1341709 23.8624807,17.1341709 C24.5038163,17.1341709 25.0237216,17.6540761 25.0237216,18.2954117 L25.0237216,28.8407058 C25.0237216,29.0859822 24.9476775,29.3134977 24.8178795,29.5009619 C24.850327,29.6078523 24.8677757,29.7212681 24.8677757,29.8387592 C24.8677757,30.4800948 24.3478705,31 23.7065349,31 L13.1612408,31 C12.5199052,31 12,30.4800948 12,29.8387592 C12,29.1974236 12.5199052,28.6775183 13.1612408,28.6775183 L22.7012399,28.6775183 Z" id="Combined-Shape-Copy-3" fill="#FFFFFF" transform="translate(18.500000, 24.000000) rotate(-135.000000) translate(-18.500000, -24.000000) "></path>
                </g>
            </g>
        </g>
    </g>
</svg>