<?xml version="1.0" encoding="UTF-8"?>
<svg width="200px" height="200px" viewBox="0 0 200 200" version="1.1" xmlns="http://www.w3.org/2000/svg" xmlns:xlink="http://www.w3.org/1999/xlink">
    <!-- Generator: Sketch 49.1 (51147) - http://www.bohemiancoding.com/sketch -->
    <title>Group 6</title>
    <desc>Created with Sketch.</desc>
    <defs>
        <path d="M142.385294,91.0234113 C133.276471,91.0234113 125.126471,85.2441471 121.770588,77.5384616 C118.414706,85.2441471 110.744118,91.0234113 101.635294,91.0234113 C92.5264707,91.0234113 84.3764707,85.2441471 81.5000001,77.5384616 C78.1441178,85.2441471 70.4735294,91.0234113 60.8852941,91.0234113 C51.7764706,91.0234113 43.6264706,85.2441471 40.75,77.5384616 C37.3941177,85.2441471 29.7235293,91.0234113 20.1352941,91.0234113 C17.7382353,91.0234113 15.8205882,90.541806 13.9029412,90.0602006 L13.9029412,134.849498 C13.9029412,139.183946 18.6970588,144 22.532353,144 L139.508824,144 C143.823529,144 148.138235,138.702341 148.138235,134.849498 L148.138235,90.0602006 C146.7,90.5418059 144.782353,91.0234113 142.385294,91.0234113 M148.617647,20.2274247 L14.3823529,20.2274247 L0,56.3478261 C0,67.4247492 9.10882349,76.0936455 20.1352941,76.0936455 C31.1617648,76.0936455 40.75,67.4247492 40.75,56.3478261 C40.75,67.4247492 49.8588235,76.0936455 60.8852941,76.0936455 C71.9117647,76.0936455 81.5000001,67.4247492 81.5000001,56.3478261 C81.5000001,67.4247492 90.6088236,76.0936455 101.635294,76.0936455 C112.661765,76.0936455 121.770588,67.4247492 121.770588,56.3478261 C121.770588,67.4247492 130.879412,76.0936455 142.385294,76.0936455 C153.411765,76.0936455 163,67.4247492 163,56.3478261 L148.617647,20.2274247 M141.905882,19.7458194 L142.385294,20.2274247 L141.905882,19.7458194 M23.4911764,13.9665552 L139.988235,13.9665552 C143.823529,13.9665552 147.179412,11.0769231 147.179412,7.22408027 C147.179412,3.37123741 143.344118,0 139.508824,0 L23.4911764,0 C19.1764705,0 16.3,2.88963211 16.3,7.22408027 C16.3,11.5585284 19.1764705,13.9665552 23.4911764,13.9665552" id="path-1"></path>
        <filter x="-17.8%" y="-18.1%" width="141.7%" height="147.2%" filterUnits="objectBoundingBox" id="filter-2">
            <feOffset dx="5" dy="8" in="SourceAlpha" result="shadowOffsetOuter1"></feOffset>
            <feGaussianBlur stdDeviation="10" in="shadowOffsetOuter1" result="shadowBlurOuter1"></feGaussianBlur>
            <feColorMatrix values="0 0 0 0 0.298039216   0 0 0 0 0.650980392   0 0 0 0 0.937254902  0 0 0 0.5 0" type="matrix" in="shadowBlurOuter1"></feColorMatrix>
        </filter>
    </defs>
    <g id="Page-1" stroke="none" stroke-width="1" fill="none" fill-rule="evenodd">
        <g id="解决方案-PC" transform="translate(-1314.000000, -2596.000000)" fill-rule="nonzero">
            <g id="Group-6" transform="translate(1314.000000, 2596.000000)">
                <g id="实体店" transform="translate(18.000000, 27.000000)">
                    <g id="Shape">
                        <use fill="black" fill-opacity="1" filter="url(#filter-2)" xlink:href="#path-1"></use>
                        <use fill="#71B9F4" fill-rule="evenodd" xlink:href="#path-1"></use>
                    </g>
                </g>
            </g>
        </g>
    </g>
</svg>