<?xml version="1.0" encoding="UTF-8"?>
<svg width="86px" height="86px" viewBox="0 0 86 86" version="1.1" xmlns="http://www.w3.org/2000/svg" xmlns:xlink="http://www.w3.org/1999/xlink">
    <!-- Generator: Sketch 49.1 (51147) - http://www.bohemiancoding.com/sketch -->
    <title>Group 26</title>
    <desc>Created with Sketch.</desc>
    <defs></defs>
    <g id="Page-1" stroke="none" stroke-width="1" fill="none" fill-rule="evenodd">
        <g id="首页-PC" transform="translate(-1607.000000, -6874.000000)" fill="#FFFFFF" fill-rule="nonzero">
            <g id="Group-26" transform="translate(1607.000000, 6874.000000)">
                <g id="pcdongshi" transform="translate(9.000000, 9.000000)">
                    <path d="M34.5213145,0.0130304115 C15.4642166,-0.505954094 0.527572317,14.5445964 0.0125156116,33.2280384 C-0.502541093,52.430465 14.9491599,68 33.4912011,68 C52.548299,68 67.4849433,52.430465 68,33.747023 C68,15.5825655 53.0633557,0.0130304115 34.5213145,0.0130304115 Z M34.0062578,60.2152325 C19.5846702,60.2152325 7.73836612,48.278589 7.73836612,33.747023 C8.25342282,19.2154569 19.5846702,7.27881343 34.5213145,7.27881343 C48.9429021,7.79779793 60.7892062,19.2154569 60.7892062,34.2660075 C60.2741495,48.7975735 48.4278454,60.734217 34.0062578,60.2152325 Z" id="Shape"></path>
                    <path d="M33.8112551,17 C24.7428022,17 17.6895611,24.124834 17.6895611,33.2853349 C17.1857582,41.936919 23.7351964,49.5706698 32.2998463,50.0795865 L33.3074522,50.0795865 C41.8721021,50.5885032 49.4291462,43.4636692 49.4291462,34.812085 L49.4291462,34.3031683 C49.9329491,25.1426674 42.879708,17.5089167 33.8112551,17 C34.3150581,17 33.8112551,17 33.8112551,17 Z M34.3150581,42.4458358 C29.2770287,42.4458358 25.2466052,38.3745021 25.2466052,33.2853349 C25.7504081,28.1961677 29.7808316,24.6337507 34.818861,25.1426674 C39.3530874,25.6515841 42.879708,29.2140011 42.879708,33.2853349 C42.879708,38.374502 38.8492845,42.4458358 34.3150581,42.4458358 Z" id="Shape"></path>
                </g>
            </g>
        </g>
    </g>
</svg>