<?xml version="1.0" encoding="UTF-8"?>
<svg width="40px" height="40px" viewBox="0 0 40 40" version="1.1" xmlns="http://www.w3.org/2000/svg" xmlns:xlink="http://www.w3.org/1999/xlink">
    <!-- Generator: Sketch 49.1 (51147) - http://www.bohemiancoding.com/sketch -->
    <title>huifang</title>
    <desc>Created with Sketch.</desc>
    <defs></defs>
    <g id="Page-1" stroke="none" stroke-width="1" fill="none" fill-rule="evenodd">
        <g id="首页-手机端" transform="translate(-90.000000, -4276.000000)" fill="#FFFFFF" fill-rule="nonzero">
            <g id="Group-16" transform="translate(90.000000, 4115.000000)">
                <g id="huifang" transform="translate(5.000000, 168.000000)">
                    <path d="M16.8851088,21.2317562 C12.20126,18.8837209 9.97892323,16.7730553 7.39117982,12.3753007 L10.7961054,8.52606255 L6.97926691,0.477947068 L2.97308132,0.477947068 C0.810538364,0.477947068 0.186025177,1.74178027 0,2.46030473 C1.01317297,16.8275862 11.2644903,26.8740978 26.1930126,28 C26.3557846,27.9711307 28.5947308,27.5284683 28.5947308,25.0328789 L28.5947308,20.8243785 L20.3863688,17.9534884 L16.8851088,21.2317562 Z M23.6617411,2.93504408 L21.1670103,2.93504408 L21.1670103,0 L15.1743414,3.39053728 L21.1703322,7.26543704 L21.1703322,4.436247 L23.2166094,4.436247 C25.3592211,4.436247 27.0998855,6.06575782 27.1198167,8.08019245 C27.0998855,10.0946271 25.3592211,11.7241379 23.2166094,11.7241379 L19.834937,11.7241379 L19.834937,13.2285485 L23.6617411,13.2285485 C26.6082474,13.2285485 29,10.9767442 29,8.19566958 L29,7.967923 C29,5.18684842 26.6115693,2.93504408 23.6617411,2.93504408 Z" id="Shape"></path>
                </g>
            </g>
        </g>
    </g>
</svg>