<?xml version="1.0" encoding="UTF-8"?>
<svg width="40px" height="40px" viewBox="0 0 40 40" version="1.1" xmlns="http://www.w3.org/2000/svg" xmlns:xlink="http://www.w3.org/1999/xlink">
    <!-- Generator: Sketch 49.1 (51147) - http://www.bohemiancoding.com/sketch -->
    <title>licai</title>
    <desc>Created with Sketch.</desc>
    <defs></defs>
    <g id="Page-1" stroke="none" stroke-width="1" fill="none" fill-rule="evenodd">
        <g id="首页-手机端" transform="translate(-170.000000, -2500.000000)" fill="#040000" fill-rule="nonzero">
            <g id="Group-11" transform="translate(84.000000, 2162.000000)">
                <g id="licai" transform="translate(91.000000, 343.000000)">
                    <path d="M18.4289953,13.8695652 L10.1178798,13.8695652 C9.7565269,13.8695652 9.515625,13.6331522 9.515625,13.2785326 C9.515625,12.9239131 9.7565269,12.6875 10.1178798,12.6875 L18.4289953,12.6875 C18.7903481,12.6875 19.03125,12.923913 19.03125,13.2785326 C19.03125,13.6331522 18.7301226,13.8695652 18.4289953,13.8695652 Z M18.4289953,16.765625 L10.1178798,16.765625 C9.7565269,16.765625 9.515625,16.529212 9.515625,16.1745924 C9.515625,15.8199728 9.7565269,15.5835598 10.1178798,15.5835598 L18.4289953,15.5835598 C18.7903481,15.5835598 19.03125,15.8199728 19.03125,16.1745924 C19.03125,16.5292119 18.7301226,16.765625 18.4289953,16.765625 Z" id="Shape"></path>
                    <path d="M14.7265625,20.390625 C14.31875,20.390625 14.046875,20.1554151 14.046875,19.8026002 L14.046875,13.2755248 C14.046875,12.9227099 14.31875,12.6875 14.7265625,12.6875 C15.134375,12.6875 15.40625,12.9227099 15.40625,13.2755248 L15.40625,19.8614027 C15.40625,20.1554151 15.0664062,20.390625 14.7265625,20.390625 Z" id="Shape"></path>
                    <path d="M14.8054225,13.59375 C14.620445,13.59375 14.4354675,13.534482 14.3121492,13.3566781 L10.9825541,9.08938461 C10.7975766,8.85231275 10.8592358,8.437437 11.1058725,8.25963308 C11.3525091,8.08182919 11.7841233,8.14109713 11.9691008,8.37816902 L15.2986959,12.5861946 C15.4836734,12.8232664 15.4220142,13.2381422 15.1753775,13.4159461 C15.0520592,13.534482 14.9287409,13.59375 14.8054225,13.59375 Z" id="Shape"></path>
                    <path d="M14.1945775,13.59375 C14.0712591,13.59375 13.9479408,13.5338289 13.8246225,13.4739078 C13.5779858,13.2941445 13.5163266,12.8746968 13.7013041,12.6350125 L17.0308992,8.38061455 C17.2158767,8.14093016 17.6474909,8.08100906 17.8941275,8.26077237 C18.1407642,8.44053565 18.2024234,8.85998335 18.0174459,9.09966774 L14.6878508,13.3540656 C14.5645325,13.4739078 14.379555,13.59375 14.1945775,13.59375 Z" id="Shape"></path>
                    <path d="M14.5,29 C6.525,29 -3.16243489e-08,22.475 0,14.5 C3.16243489e-08,6.52499999 6.525,0 14.5,0 C18.0645833,0 21.4479167,1.26875 24.10625,3.62500001 C24.7104167,4.16875001 25.2541666,4.77291666 25.7979167,5.37708334 C26.2208333,5.92083334 26.1604167,6.64583334 25.6166667,7.06874999 C25.0729166,7.49166665 24.3479167,7.43125001 23.925,6.8875 C23.5020833,6.34375 23.01875,5.86041667 22.5354167,5.43750001 C20.3,3.50416669 17.4604167,2.41666668 14.5,2.41666668 C7.85416664,2.41666668 2.41666665,7.85416669 2.41666665,14.5 C2.41666665,21.1458333 7.85416667,26.5833333 14.5,26.5833333 C21.1458333,26.5833333 26.5833333,21.1458333 26.5833333,14.5 C26.5833333,13.4729167 26.4625,12.4458333 26.2208333,11.4791667 C26.0395833,10.8145833 26.4625,10.15 27.0666667,10.0291667 C27.73125,9.84791669 28.3958334,10.2708333 28.5166667,10.875 C28.81875,12.0833333 29,13.2916666 29,14.5604167 C29,22.475 22.475,29 14.5,29 Z" id="Shape"></path>
                    <path d="M25.0127596,6.796875 C24.608736,6.796875 24.2047124,6.5017654 24.1469948,6.02959006 L23.5698182,2.37023116 C23.5121005,1.89805582 23.8006888,1.42588048 24.2624301,1.36685855 C24.7241713,1.30783663 25.1859126,1.60294622 25.2436303,2.07512156 L25.8208068,5.73448047 C25.8785245,6.20665581 25.5899362,6.67883115 25.1281949,6.73785307 C25.1281949,6.796875 25.0704773,6.796875 25.0127596,6.796875 Z" id="Shape"></path>
                </g>
            </g>
        </g>
    </g>
</svg>