<?xml version="1.0" encoding="UTF-8"?>
<svg width="40px" height="40px" viewBox="0 0 40 40" version="1.1" xmlns="http://www.w3.org/2000/svg" xmlns:xlink="http://www.w3.org/1999/xlink">
    <!-- Generator: Sketch 49.1 (51147) - http://www.bohemiancoding.com/sketch -->
    <title>mingqifan</title>
    <desc>Created with Sketch.</desc>
    <defs></defs>
    <g id="Page-1" stroke="none" stroke-width="1" fill="none" fill-rule="evenodd">
        <g id="首页-手机端" transform="translate(-244.000000, -4115.000000)" fill="#FFFFFF" fill-rule="nonzero">
            <g id="Group-16" transform="translate(90.000000, 4115.000000)">
                <g id="mingqifan" transform="translate(159.000000, 4.000000)">
                    <path d="M15,14.3478261 C18.8181818,14.3478261 21.8181818,11.4782609 21.8181818,7.82608696 L21.8181818,6.52173913 C21.8181818,2.86956522 18.8181818,0 15,0 C11.1818182,0 8.18181818,2.86956522 8.18181818,6.52173913 L8.18181818,7.82608696 C8.18181818,11.4782609 11.1818182,14.3478261 15,14.3478261 Z M10.9090909,6.52173913 C10.9090909,4.30434783 12.6818182,2.60869565 15,2.60869565 C17.3181818,2.60869565 19.0909091,4.30434783 19.0909091,6.52173913 L19.0909091,7.82608696 C19.0909091,10.0434783 17.3181818,11.7391304 15,11.7391304 C12.6818182,11.7391304 10.9090909,10.0434783 10.9090909,7.82608696 L10.9090909,6.52173913 Z M23.3181818,15.6521739 L6.68181818,15.6521739 C3,15.6521739 0,18.5217391 0,22.0434783 L0,30 L30,30 L30,22.0434783 C30,18.5217391 27,15.6521739 23.3181818,15.6521739 Z M27.2727273,27.3913043 L16.3636364,27.3913043 L16.3636364,22.173913 L13.6363636,22.173913 L13.6363636,27.3913043 L2.72727273,27.3913043 L2.72727273,22.0434783 C2.72727273,19.9565217 4.5,18.2608696 6.68181818,18.2608696 L23.4545455,18.2608696 C25.6363636,18.2608696 27.4090909,19.9565217 27.4090909,22.0434783 L27.4090909,27.3913043 L27.2727273,27.3913043 Z" id="Shape"></path>
                </g>
            </g>
        </g>
    </g>
</svg>