<?xml version="1.0" encoding="UTF-8"?>
<svg width="870px" height="153px" viewBox="0 0 870 153" version="1.1" xmlns="http://www.w3.org/2000/svg" xmlns:xlink="http://www.w3.org/1999/xlink">
    <!-- Generator: Sketch 49.1 (51147) - http://www.bohemiancoding.com/sketch -->
    <title>pcbiaoqian</title>
    <desc>Created with Sketch.</desc>
    <defs></defs>
    <g id="Page-1" stroke="none" stroke-width="1" fill="none" fill-rule="evenodd">
        <g id="招募合伙人-PC" transform="translate(-510.000000, -2528.000000)">
            <g id="Group-7" transform="translate(510.000000, 2528.000000)">
                <g id="pcbiaoqian">
                    <polygon id="Fill-1" fill="#44A8E0" points="40.3697223 90.4848783 0 151.94184 160.919149 152 161 29.0581604 0.0808513926 29"></polygon>
                    <polygon id="Fill-2" fill="#44A8E0" points="709 152.941841 869.922255 153 829.625608 91.5162846 870 30.0604857 709.077745 30"></polygon>
                    <polygon id="Fill-3" fill="#44A8E0" points="709 152.965096 809.918254 153 810 30.0349035 709.078602 30"></polygon>
                    <polygon id="Fill-4" fill="#44A8E0" points="61 151.965096 161.918259 152 162 29.0349035 61.0785968 29"></polygon>
                    <polygon id="Fill-5" fill="#2479B2" points="82.0788705 0 82 122.19481 162.917975 152 163 29.8098119"></polygon>
                    <polygon id="Fill-6" fill="#2479B2" points="709.078831 29.7633532 709 152 789.918016 122.24127 790 0"></polygon>
                    <polygon id="Fill-7" fill="#71B9F4" points="82 122.744505 788.922048 123 789 0.253172445 82.0779517 0"></polygon>
                </g>
            </g>
        </g>
    </g>
</svg>