<?xml version="1.0" encoding="UTF-8"?>
<svg width="86px" height="86px" viewBox="0 0 86 86" version="1.1" xmlns="http://www.w3.org/2000/svg" xmlns:xlink="http://www.w3.org/1999/xlink">
    <!-- Generator: Sketch 49.1 (51147) - http://www.bohemiancoding.com/sketch -->
    <title>pcchuangy</title>
    <desc>Created with Sketch.</desc>
    <defs></defs>
    <g id="Page-1" stroke="none" stroke-width="1" fill="none" fill-rule="evenodd">
        <g id="首页-PC" transform="translate(-558.000000, -3858.000000)" fill="#000000" fill-rule="nonzero">
            <g id="Group-10" transform="translate(558.000000, 3858.000000)">
                <g id="pcchuangyi" transform="translate(12.000000, 7.000000)">
                    <path d="M36.2305229,62.784 L26.2340127,62.784 C24.8675833,62.784 23.7528645,61.668 23.7528645,60.3 C23.7528645,58.932 24.8675833,57.816 26.2340127,57.816 L36.1945643,57.816 C37.5609937,57.816 38.6757125,58.932 38.6757125,60.3 C38.6757125,61.668 37.5969524,62.784 36.2305229,62.784 Z M31.0884331,41.292 C30.4771358,41.292 29.8298797,41.04 29.3264583,40.536 L24.9754593,36.18 L23.8607405,39.42 C23.3573191,40.68 21.9908897,41.4 20.6244602,40.932 C19.3659068,40.428 18.6467334,39.06 19.1141961,37.692 L21.5953443,30.708 C21.847055,29.952 22.6021871,29.34 23.3573191,29.088 C24.2203272,28.836 25.1192939,29.196 25.7305913,29.7 L31.0884331,35.064 L36.446275,29.7 C37.0575723,29.088 37.9565391,28.836 38.8195472,29.088 C39.6825552,29.34 40.3298113,29.844 40.581522,30.708 L43.0626702,37.692 C43.5660916,38.952 42.8109595,40.428 41.5524061,40.932 C40.2938526,41.436 38.8195472,40.68 38.3161258,39.42 L37.201407,36.18 L32.850408,40.536 C32.3469866,41.04 31.7356892,41.292 31.0884331,41.292 Z M57.5180555,17.208 C56.9067581,17.208 56.1516261,16.956 55.6482047,16.452 C54.7851966,15.444 54.7851966,13.824 55.7560807,12.96 L57.8776422,10.98 C58.884485,10.116 60.5026251,10.116 61.3656332,11.088 C62.2286413,12.06 62.2286413,13.716 61.2577572,14.58 L59.1361957,16.56 C58.776609,16.956 58.1653116,17.208 57.5180555,17.208 Z M31.0884331,7.992 C29.7220037,7.992 28.6072849,6.876 28.6072849,5.508 L28.6072849,2.484 C28.6072849,1.116 29.7220037,0 31.0884331,0 C32.4548626,0 33.5695814,1.116 33.5695814,2.484 L33.5695814,5.472 C33.60554,6.876 32.4908213,7.992 31.0884331,7.992 Z M4.69476944,17.208 C4.08347206,17.208 3.436216,16.956 2.93279462,16.596 L0.811233096,14.616 C-0.195609661,13.752 -0.303485671,12.132 0.703357086,11.124 C1.56636516,10.116 3.18450531,10.008 4.19134807,11.016 L6.31290959,12.996 C7.31975235,13.86 7.42762836,15.48 6.4207856,16.488 C6.0611989,16.956 5.30606683,17.208 4.69476944,17.208 Z M54.7851966,30.816 C53.6704778,19.08 44.069513,9.72 32.2391106,9.108 L30.009673,9.108 C18.251188,9.72 8.54234712,19.08 7.42762836,30.816 C6.81633097,37.44 8.93789249,43.776 13.2888915,48.78 C14.4036103,50.148 15.2666184,51.516 15.7700398,53.136 C16.2734611,54.648 16.5251718,56.124 16.6330478,57.636 L16.9926345,66.996 C16.9926345,69.732 19.2220721,72 21.9908897,72 L40.5455633,72 C43.2784222,72 45.5438184,69.768 45.5438184,66.996 L45.9034051,57.636 C45.9034051,56.124 46.2629918,54.648 46.7664132,53.136 C47.2698346,51.624 48.1328427,50.148 49.2475614,48.78 C53.4187671,43.812 55.396494,37.44 54.7851966,30.816 Z M45.3280664,45.54 C43.7099263,47.412 42.5952075,49.392 41.8400754,51.66 C41.2287781,53.64 40.8332327,55.512 40.7253567,57.384 L40.36577,64.512 C40.36577,65.88 39.2510512,66.996 37.8846218,66.996 L24.2562859,66.996 C22.8898564,66.996 21.7751376,65.88 21.7751376,64.512 L21.523427,57.384 C21.4155509,55.512 21.0200056,53.532 20.4087082,51.66 C19.6535761,49.428 18.5388574,47.412 16.9207172,45.54 C13.4327262,41.544 11.8145861,36.54 12.3180075,31.32 C13.1810155,22.104 20.8042536,14.616 30.1535077,14.112 L32.1312346,14.112 C41.4804887,14.616 49.0677681,21.96 49.9667348,31.32 C50.2903629,36.576 48.6722227,41.544 45.3280664,45.54 Z" id="Shape"></path>
                </g>
            </g>
        </g>
    </g>
</svg>