<?xml version="1.0" encoding="UTF-8"?>
<svg width="86px" height="86px" viewBox="0 0 86 86" version="1.1" xmlns="http://www.w3.org/2000/svg" xmlns:xlink="http://www.w3.org/1999/xlink">
    <!-- Generator: Sketch 49.1 (51147) - http://www.bohemiancoding.com/sketch -->
    <title>pcchuangmei</title>
    <desc>Created with Sketch.</desc>
    <defs></defs>
    <g id="Page-1" stroke="none" stroke-width="1" fill="none" fill-rule="evenodd">
        <g id="首页-PC" transform="translate(-1328.000000, -6869.000000)" fill="#FFFFFF" fill-rule="nonzero">
            <g id="Group-25" transform="translate(1328.000000, 6869.000000)">
                <g id="pcchuangmei" transform="translate(9.000000, 15.000000)">
                    <path d="M68.7735734,51.4388218 C68.4840226,50.9318461 67.5535405,50.7766663 65.9820596,50.9743799 C63.0897266,51.3538227 60.9910401,50.3992129 59.6826215,48.1089726 C58.6925399,46.3756509 58.4364377,44.6340283 58.9149231,42.8821838 C59.3933409,41.1312312 60.809336,38.6307229 63.1628408,35.3823054 L64.6357324,33.3118003 C69.0063629,27.2077172 69.9027206,21.8981932 67.3243324,17.3841889 C64.7030353,12.7943097 57.1439663,13.1679899 51.6985851,15.5190124 C47.2930193,6.33342273 37.9812384,0 27.2053503,0 C12.1799903,0 0,12.3121683 0,27.4999657 C0,42.6877631 12.1799227,55 27.2052827,55 C42.2298993,55 54.4099572,42.6878317 54.4099572,27.4999657 C54.4099572,24.1262107 53.8076103,20.8955614 52.7082629,17.9088641 C54.5371299,17.2526771 56.7431225,16.7888526 58.8010624,16.7122918 C61.5274357,16.6106222 63.9927065,17.1894252 64.9711655,18.9029206 C67.1562104,22.7280829 66.1017992,27.2450372 61.8100941,32.4533032 L60.9318461,33.5204904 C55.9133919,39.6105786 54.711874,44.9442508 57.3261435,49.5210268 C58.3815008,51.368641 60.0620447,52.6870521 62.3681807,53.4778381 C64.6742491,54.2680753 66.6277209,54.1953562 68.228934,53.2609843 C69.0215669,52.7986005 69.2030683,52.1913273 68.7735734,51.4388904 L68.7735734,51.4388218 Z M14.7362821,33.3727197 C11.6062944,33.3727197 9.0689231,30.8077247 9.0689231,27.6433458 C9.0689231,24.4790356 11.6062944,21.9141091 14.7362821,21.9141091 C17.8666752,21.9141091 20.4041141,24.4795844 20.4041141,27.6433458 C20.4041141,30.8077247 17.8667428,33.3727197 14.7362821,33.3727197 Z M27.2052827,45.9765877 C24.0748896,45.9765877 21.5376534,43.4116613 21.5376534,40.247351 C21.5376534,37.0831779 24.0748896,34.5185259 27.2052827,34.5185259 C30.3350677,34.5185259 32.8727768,37.0831779 32.8727768,40.247351 C32.8727768,43.4116613 30.3354055,45.9765877 27.2052827,45.9765877 Z M24.984897,27.6432772 C24.984897,26.3778275 26.0001834,25.3519393 27.2519757,25.3519393 C28.5041735,25.3519393 29.519122,26.3778275 29.519122,27.6432772 C29.519122,28.9089327 28.5041735,29.935164 27.2520433,29.935164 C26.0001834,29.935164 24.984897,28.9089327 24.984897,27.6432772 Z M27.2053503,20.7680285 C24.0748896,20.7680285 21.5376534,18.2031021 21.5376534,15.0392035 C21.5376534,11.8745502 24.0748896,9.30989816 27.2052827,9.30989816 C30.3350677,9.30989816 32.8727768,11.8748932 32.8727768,15.0392035 C32.8727768,18.2035137 30.3354055,20.7680285 27.2052827,20.7680285 L27.2053503,20.7680285 Z M39.6741482,33.3726511 C36.5436199,33.3726511 34.0062486,30.8076561 34.0062486,27.6432772 C34.0062486,24.478967 36.5435523,21.9140405 39.6741482,21.9140405 C42.8041359,21.9140405 45.3419126,24.4795158 45.3419126,27.6432772 C45.3419126,30.8076561 42.8041359,33.3726511 39.6741482,33.3726511 Z" id="Shape"></path>
                </g>
            </g>
        </g>
    </g>
</svg>