<?xml version="1.0" encoding="UTF-8"?>
<svg width="53px" height="58px" viewBox="0 0 53 58" version="1.1" xmlns="http://www.w3.org/2000/svg" xmlns:xlink="http://www.w3.org/1999/xlink">
    <!-- Generator: Sketch 49.1 (51147) - http://www.bohemiancoding.com/sketch -->
    <title>PCDAQQ</title>
    <desc>Created with Sketch.</desc>
    <defs></defs>
    <g id="Page-1" stroke="none" stroke-width="1" fill="none" fill-rule="evenodd">
        <g id="首页-PC" transform="translate(-613.000000, -7435.000000)">
            <g id="Group-33" transform="translate(613.000000, 7435.000000)">
                <g id="PCDAQQ">
                    <path d="M31.4932113,1.33340986 L47.9932113,10.8424553 C51.0910471,12.6277561 53,15.9311693 53,19.5066253 L53,38.4933747 C53,42.0688307 51.0910471,45.3722439 47.9932113,47.1575447 L31.4932113,56.6665901 C28.4026528,58.4476969 24.5973472,58.4476969 21.5067887,56.6665901 L5.00678872,47.1575447 C1.90895287,45.3722439 0,42.0688307 -3.55271368e-15,38.4933747 L-1.42108547e-14,19.5066253 C-1.42108547e-14,15.9311693 1.90895287,12.6277561 5.00678872,10.8424553 L21.5067887,1.33340986 C24.5973472,-0.447696866 28.4026528,-0.447696866 31.4932113,1.33340986 Z" id="Polygon-Copy-11" fill="#E6ECF2"></path>
                    <g id="qq-copy-4" transform="translate(14.000000, 15.000000)" fill="#BDC2C5" fill-rule="nonzero">
                        <path d="M22.3526091,15.6680171 C21.9413141,14.6865723 21.4001364,13.811777 20.8352823,13.1354305 C21.0997829,12.7911824 21.2682244,12.2748101 21.2682244,11.6963382 C21.2682244,10.9045673 20.9529884,10.2282209 20.5078698,9.95417236 C20.5775464,9.51947466 20.6140759,9.07397702 20.6140759,8.62037942 C20.6140759,3.85895459 16.6370968,0 11.7299685,0 C6.82622269,0 2.84992001,3.85895459 2.84992001,8.62037942 C2.84992001,9.07870199 2.88712597,9.52757462 2.95815553,9.9663223 C2.52250754,10.2484708 2.2160657,10.9167173 2.2160657,11.6963382 C2.2160657,12.1485858 2.31888945,12.5630336 2.49071335,12.8870319 C1.86102567,13.5622924 1.32932964,14.3223111 0.911151125,15.1448949 C-0.347763352,17.5998569 -0.159704123,20.0811438 0.615532841,20.4854667 C1.0132984,20.6926906 2.05100652,20.041994 3.06977342,18.8337504 C3.23550907,20.2552929 3.92280467,21.551961 4.97539517,22.5961805 C3.23145024,23.1004028 2.07603599,24.0960226 2.23094809,25.1058172 C2.42374262,26.3829105 4.63174738,27.2010062 7.16378224,26.9337076 C9.01731565,26.7372836 10.5285542,26.0136874 11.1306143,25.1395671 C11.5367122,25.1572 11.9434896,25.1515657 12.3489405,25.1226922 C12.96453,25.9880376 14.4209743,26.7129837 16.1885958,26.9343826 C18.6435129,27.238806 20.7683115,26.4551351 20.9333707,25.1814168 C21.0659592,24.1668972 19.9152803,23.1469776 18.2004237,22.6198054 C19.2205435,21.6174357 19.9024273,20.3788172 20.1060454,19.0200494 C21.0104885,20.230318 21.9359023,21.0031889 22.4195798,20.8992395 C22.9911987,20.7763901 23.4004643,18.1675289 22.3526091,15.6680171 Z" id="Shape"></path>
                    </g>
                </g>
            </g>
        </g>
    </g>
</svg>