<?xml version="1.0" encoding="UTF-8"?>
<svg width="86px" height="86px" viewBox="0 0 86 86" version="1.1" xmlns="http://www.w3.org/2000/svg" xmlns:xlink="http://www.w3.org/1999/xlink">
    <!-- Generator: Sketch 49.1 (51147) - http://www.bohemiancoding.com/sketch -->
    <title>pcduijie</title>
    <desc>Created with Sketch.</desc>
    <defs></defs>
    <g id="Page-1" stroke="none" stroke-width="1" fill="none" fill-rule="evenodd">
        <g id="首页-PC" transform="translate(-505.000000, -6868.000000)" fill="#FFFFFF" fill-rule="nonzero">
            <g id="Group-22" transform="translate(505.000000, 6868.000000)">
                <g id="pcduijie" transform="translate(12.000000, 10.000000)">
                    <path d="M41.4055089,22.6887737 L21.4104339,22.6887737 C18.3518048,22.6887737 15.8821043,20.1429577 15.8821043,17.0118966 C15.8821043,13.8710815 18.3613036,11.3350194 21.4104339,11.3350194 L41.4055089,11.3350194 L41.4055089,2.20519637 C41.4055089,0.381182612 43.4382623,-0.65275039 44.8535908,0.459215269 L61.3435909,13.4419017 C63.5663214,15.1878828 63.5473236,18.6213205 61.3150944,20.3575475 L44.8440919,33.1353982 C43.4287636,34.2278557 41.4055089,33.1939228 41.4055089,31.379663 L41.4055089,22.6887737 Z M3.04451446e-05,17.0996834 L3.04451446e-05,16.9241099 C3.04451446e-05,13.8320651 2.44123439,11.3350194 5.44287038,11.3350194 C8.45400524,11.3350194 10.8857103,13.8418192 10.8857102,16.9241099 L10.8857102,17.0996834 C10.8857102,20.1917282 8.44450629,22.6887738 5.44287038,22.6887737 C2.44123439,22.6887737 3.04451446e-05,20.1917281 3.04451446e-05,17.0996834 Z M21.590912,64.7971565 C21.590912,66.6114162 19.5676573,67.6453491 18.152329,66.5528917 L1.68132657,53.775041 C-0.55090273,52.048568 -0.560401597,48.6053762 1.65282997,46.8593951 L18.1428302,33.8767086 C19.5486597,32.764743 21.590912,33.798676 21.590912,35.6226898 L21.590912,44.7525129 L41.585987,44.7525129 C44.6446161,44.7525129 47.1143166,47.2983289 47.1143166,50.42939 C47.1143166,53.5702052 44.6351173,56.1062672 41.585987,56.1062672 L21.590912,56.1062672 L21.590912,64.7971565 Z M57.5535506,56.1062672 C54.5424157,56.1062672 52.1107107,53.5994675 52.1107107,50.5171768 L52.1107107,50.3416032 C52.1107107,47.2495584 54.5519146,44.7525128 57.5535506,44.7525129 C60.5646854,44.7525129 62.9963905,47.2593126 62.9963904,50.3416032 L62.9963904,50.5171768 C62.9963904,53.5994675 60.5551865,56.1062672 57.5535506,56.1062672 Z" id="Shape"></path>
                </g>
            </g>
        </g>
    </g>
</svg>