<?xml version="1.0" encoding="UTF-8"?>
<svg width="86px" height="86px" viewBox="0 0 86 86" version="1.1" xmlns="http://www.w3.org/2000/svg" xmlns:xlink="http://www.w3.org/1999/xlink">
    <!-- Generator: Sketch 49.1 (51147) - http://www.bohemiancoding.com/sketch -->
    <title>pchuifan</title>
    <desc>Created with Sketch.</desc>
    <defs></defs>
    <g id="Page-1" stroke="none" stroke-width="1" fill="none" fill-rule="evenodd">
        <g id="首页-PC" transform="translate(-1048.000000, -6865.000000)" fill="#FFFFFF" fill-rule="nonzero">
            <g id="Group-24" transform="translate(1048.000000, 6865.000000)">
                <g id="pchuifan" transform="translate(14.000000, 14.000000)">
                    <path d="M34.9347079,45.4966205 C25.2439862,40.4651163 20.6460481,35.9422615 15.2920962,26.5185015 L22.3367698,18.270134 L14.4398626,1.02417229 L6.15120273,1.02417229 C1.67697592,1.02417229 0.384879676,3.7323863 0,5.27208157 C2.09621994,36.0591133 23.3058419,57.5873525 54.1924398,60 C54.5292096,59.9381373 59.161512,58.989575 59.161512,53.6418833 L59.161512,44.6236682 L42.1786941,38.4717608 L34.9347079,45.4966205 Z M48.9553264,6.28938018 L43.7938144,6.28938018 L43.7938144,0 L31.395189,7.26543703 L43.8006873,15.5687937 L43.8006873,9.50624356 L48.0343643,9.50624356 C52.467354,9.50624356 56.0687286,12.9980525 56.1099657,17.3146981 C56.0687286,21.6313437 52.467354,25.1231527 48.0343643,25.1231527 L41.0378007,25.1231527 L41.0378007,28.3468896 L48.9553264,28.3468896 C55.0515464,28.3468896 60,23.5215946 60,17.5621491 L60,17.0741207 C60,11.1146752 55.0584193,6.28938018 48.9553264,6.28938018 Z" id="Shape"></path>
                </g>
            </g>
        </g>
    </g>
</svg>