<?xml version="1.0" encoding="UTF-8"?>
<svg width="86px" height="86px" viewBox="0 0 86 86" version="1.1" xmlns="http://www.w3.org/2000/svg" xmlns:xlink="http://www.w3.org/1999/xlink">
    <!-- Generator: Sketch 49.1 (51147) - http://www.bohemiancoding.com/sketch -->
    <title>pclichoa</title>
    <desc>Created with Sketch.</desc>
    <defs></defs>
    <g id="Page-1" stroke="none" stroke-width="1" fill="none" fill-rule="evenodd">
        <g id="首页-PC" transform="translate(-1267.000000, -3858.000000)" fill="#040000" fill-rule="nonzero">
            <g id="Group-12" transform="translate(1267.000000, 3858.000000)">
                <g id="pclicai" transform="translate(11.000000, 11.000000)">
                    <path d="M40.6708861,30.6086956 L22.329114,30.6086956 C21.5316456,30.6086956 21,30.0869565 21,29.3043478 C21,28.5217392 21.5316456,28 22.329114,28 L40.6708861,28 C41.4683545,28 42.0000001,28.5217391 42,29.3043478 C41.9999999,30.0869566 41.335443,30.6086957 40.6708861,30.6086956 Z M40.6708861,37 L22.329114,37 C21.5316456,37 21,36.4782609 21,35.6956522 C21,34.9130434 21.5316456,34.3913043 22.329114,34.3913044 L40.6708861,34.3913044 C41.4683545,34.3913044 42.0000001,34.9130435 42,35.6956522 C41.9999999,36.4782608 41.335443,37 40.6708861,37 Z" id="Shape"></path>
                    <path d="M32.5,45 C31.5999999,45 30.9999999,44.480916 31,43.7022901 L31,29.2977099 C31,28.519084 31.6,28 32.5,28 C33.3999999,28 34,28.519084 34,29.2977099 L34,43.8320611 C34,44.480916 33.25,45 32.5,45 Z" id="Shape"></path>
                    <path d="M32.6740359,30 C32.2658097,30 31.8575835,29.8692017 31.5854327,29.4768069 L24.2373608,20.0593315 C23.8291347,19.5361385 23.96521,18.6205506 24.5095116,18.2281558 C25.0538132,17.835761 26.006341,17.9665592 26.4145673,18.4897523 L33.7626392,27.7764294 C34.1708653,28.2996225 34.03479,29.2152104 33.4904884,29.6076051 C33.2183375,29.8692017 32.9461868,29.9999999 32.6740359,30 Z" id="Shape"></path>
                    <path d="M31.3259641,30 C31.0538133,30 30.7816625,29.8677603 30.5095116,29.7355206 C29.96521,29.3388017 29.8291346,28.413124 30.2373609,27.8841654 L37.5854327,18.4951493 C37.9936589,17.9661907 38.9461868,17.833951 39.4904883,18.2306701 C40.03479,18.627389 40.1708654,19.5530667 39.7626392,20.0820254 L32.4145673,29.4710414 C32.1424165,29.7355207 31.7341903,30 31.3259641,30 Z" id="Shape"></path>
                    <path d="M32,64 C14.4,64 -6.97916665e-08,49.6 0,32 C6.97916665e-08,14.4 14.4,0 32,0 C39.8666666,0 47.3333333,2.8 53.2,8.00000002 C54.5333333,9.20000003 55.7333333,10.5333333 56.9333334,11.8666667 C57.8666667,13.0666667 57.7333334,14.6666667 56.5333333,15.6 C55.3333333,16.5333333 53.7333333,16.4 52.8,15.2 C51.8666667,14 50.8,12.9333333 49.7333334,12 C44.8,7.73333339 38.5333334,5.33333337 32,5.33333337 C17.3333333,5.33333337 5.3333333,17.3333334 5.3333333,32 C5.3333333,46.6666666 17.3333333,58.6666666 32,58.6666666 C46.6666666,58.6666666 58.6666666,46.6666666 58.6666667,32 C58.6666667,29.7333333 58.4,27.4666667 57.8666667,25.3333333 C57.4666667,23.8666667 58.4,22.4 59.7333334,22.1333334 C61.2,21.7333334 62.6666667,22.6666667 62.9333333,24 C63.6,26.6666666 64,29.3333333 64,32.1333333 C64,49.6 49.6,64 32,64 Z" id="Shape"></path>
                    <path d="M55.2005729,15 C54.3089347,15 53.4172963,14.3487237 53.2899195,13.3066815 L52.0161505,5.23085497 C51.8887736,4.18881284 52.5256581,3.14677071 53.5446733,3.01651543 C54.5636885,2.88626014 55.5827037,3.53753649 55.7100806,4.57957862 L56.9838495,12.6554052 C57.1112264,13.6974473 56.4743419,14.7394894 55.4553268,14.8697447 C55.4553268,15 55.3279498,15 55.2005729,15 Z" id="Shape"></path>
                </g>
            </g>
        </g>
    </g>
</svg>