<?xml version="1.0" encoding="UTF-8"?>
<svg width="86px" height="86px" viewBox="0 0 86 86" version="1.1" xmlns="http://www.w3.org/2000/svg" xmlns:xlink="http://www.w3.org/1999/xlink">
    <!-- Generator: Sketch 49.1 (51147) - http://www.bohemiancoding.com/sketch -->
    <title>pcmingqi</title>
    <desc>Created with Sketch.</desc>
    <defs></defs>
    <g id="Page-1" stroke="none" stroke-width="1" fill="none" fill-rule="evenodd">
        <g id="首页-PC" transform="translate(-774.000000, -6795.000000)" fill="#FFFFFF" fill-rule="nonzero">
            <g id="Group-23" transform="translate(774.000000, 6795.000000)">
                <g id="pcmingqi" transform="translate(13.000000, 10.000000)">
                    <path d="M30.5,30.6086957 C38.2636364,30.6086957 44.3636364,24.4869565 44.3636364,16.6956522 L44.3636364,13.9130435 C44.3636364,6.12173913 38.2636364,0 30.5,0 C22.7363636,0 16.6363636,6.12173913 16.6363636,13.9130435 L16.6363636,16.6956522 C16.6363636,24.4869565 22.7363636,30.6086957 30.5,30.6086957 Z M22.1818182,13.9130435 C22.1818182,9.1826087 25.7863636,5.56521739 30.5,5.56521739 C35.2136364,5.56521739 38.8181818,9.1826087 38.8181818,13.9130435 L38.8181818,16.6956522 C38.8181818,21.426087 35.2136364,25.0434783 30.5,25.0434783 C25.7863636,25.0434783 22.1818182,21.426087 22.1818182,16.6956522 L22.1818182,13.9130435 Z M47.4136364,33.3913043 L13.5863636,33.3913043 C6.1,33.3913043 0,39.5130435 0,47.026087 L0,64 L61,64 L61,47.026087 C61,39.5130435 54.9,33.3913043 47.4136364,33.3913043 Z M55.4545455,58.4347826 L33.2727273,58.4347826 L33.2727273,47.3043478 L27.7272727,47.3043478 L27.7272727,58.4347826 L5.54545455,58.4347826 L5.54545455,47.026087 C5.54545455,42.573913 9.15,38.9565217 13.5863636,38.9565217 L47.6909091,38.9565217 C52.1272727,38.9565217 55.7318182,42.573913 55.7318182,47.026087 L55.7318182,58.4347826 L55.4545455,58.4347826 Z" id="Shape"></path>
                </g>
            </g>
        </g>
    </g>
</svg>