<?xml version="1.0" encoding="UTF-8"?>
<svg width="79px" height="61px" viewBox="0 0 79 61" version="1.1" xmlns="http://www.w3.org/2000/svg" xmlns:xlink="http://www.w3.org/1999/xlink">
    <!-- Generator: Sketch 49.1 (51147) - http://www.bohemiancoding.com/sketch -->
    <title>pcqq</title>
    <desc>Created with Sketch.</desc>
    <defs></defs>
    <g id="Page-1" stroke="none" stroke-width="1" fill="none" fill-rule="evenodd">
        <g id="首页-PC" transform="translate(-1786.000000, -6805.000000)">
            <g id="Group-28" transform="translate(1786.000000, 6805.000000)">
                <g id="pcqq">
                    <rect id="Rectangle-15" fill-opacity="0.509199502" fill="#000000" x="0" y="0" width="79" height="61"></rect>
                    <g id="qq-copy" transform="translate(27.000000, 16.000000)" fill="#FFFFFF" fill-rule="nonzero">
                        <path d="M24.2963142,17.4089079 C23.8492544,16.3184137 23.2610179,15.3464189 22.647046,14.5949228 C22.9345466,14.2124248 23.1176352,13.6386779 23.1176352,12.9959313 C23.1176352,12.1161859 22.7749874,11.3646899 22.2911628,11.0601915 C22.3668983,10.5771941 22.4066043,10.0821967 22.4066043,9.57819935 C22.4066043,4.28772733 18.0838008,0 12.7499658,0 C7.41980727,0 3.09773914,4.28772733 3.09773914,9.57819935 C3.09773914,10.0874467 3.1381804,10.586194 3.21538645,11.0736914 C2.74185602,11.3871898 2.40876707,12.1296859 2.40876707,12.9959313 C2.40876707,13.4984286 2.52053201,13.9589262 2.70729712,14.3189243 C2.02285399,15.0692137 1.44492352,15.913679 0.990381658,16.827661 C-0.378003643,19.5553966 -0.173591438,22.312382 0.669057436,22.7616296 C1.10141131,22.9918784 2.22935491,22.2688822 3.33671024,20.9263893 C3.51685769,22.505881 4.26391812,23.9466234 5.40803823,25.1068672 C3.51244591,25.6671143 2.25656086,26.7733584 2.42494357,27.8953525 C2.63450285,29.314345 5.03450802,30.2233402 7.78671983,29.9263418 C9.80143005,29.7080929 11.4440806,28.9040972 12.0984938,27.9328523 C12.5399046,27.9524444 12.9820539,27.9461842 13.4227614,27.9141024 C14.0918805,28.8755973 15.6749721,29.6810931 17.5962998,29.9270917 C20.2646879,30.26534 22.5742517,29.3945946 22.7536638,27.979352 C22.8977818,26.852108 21.6470438,25.718864 19.7830692,25.1331171 C20.8918951,24.019373 21.6330732,22.6431303 21.8543972,21.1333882 C22.8374875,22.4781311 23.8433721,23.3368766 24.3691085,23.2213772 C24.9904334,23.0848779 25.4352873,20.1861433 24.2963142,17.4089079 Z" id="Shape"></path>
                    </g>
                </g>
            </g>
        </g>
    </g>
</svg>