<?xml version="1.0" encoding="UTF-8"?>
<svg width="86px" height="86px" viewBox="0 0 86 86" version="1.1" xmlns="http://www.w3.org/2000/svg" xmlns:xlink="http://www.w3.org/1999/xlink">
    <!-- Generator: Sketch 49.1 (51147) - http://www.bohemiancoding.com/sketch -->
    <title>pcsahngye</title>
    <desc>Created with Sketch.</desc>
    <defs></defs>
    <g id="Page-1" stroke="none" stroke-width="1" fill="none" fill-rule="evenodd">
        <g id="首页-PC" transform="translate(-1096.000000, -3686.000000)" fill="#000000" fill-rule="nonzero">
            <g id="Group-8" transform="translate(1096.000000, 3686.000000)">
                <g id="pcshangye" transform="translate(10.000000, 10.000000)">
                    <path d="M32.4693778,0 L4.53062212,0 C2.03886081,0 0,2.03713361 0,4.5269635 L0,58.4730365 C0,60.9628665 2.03886081,63 4.53062212,63 L32.4693779,63 C34.9612201,63 37,60.9628664 37,58.4730365 L37,4.5269635 C36.9999191,2.03713353 34.96122,0 32.4693778,0 Z M12.3647825,46.3069432 L7.83416036,46.3069432 L7.83416036,40.789767 L12.3647825,40.789767 L12.3647825,46.3069432 Z M12.3647825,36.0270039 L7.83416036,36.0270039 L7.83416036,30.5098277 L12.3647825,30.5098277 L12.3647825,36.0270039 Z M12.3647825,25.7470646 L7.83416036,25.7470646 L7.83416036,20.2298884 L12.3647825,20.2298884 L12.3647825,25.7470646 Z M12.3647825,15.4672062 L7.83416036,15.4672062 L7.83416036,9.95002992 L12.3647825,9.95002992 L12.3647825,15.4672062 Z M20.7653514,46.3069432 L16.2347293,46.3069432 L16.2347293,40.789767 L20.7653514,40.789767 L20.7653514,46.3069432 Z M20.7653514,36.0270039 L16.2347293,36.0270039 L16.2347293,30.5098277 L20.7653514,30.5098277 L20.7653514,36.0270039 Z M20.7653514,25.7470646 L16.2347293,25.7470646 L16.2347293,20.2298884 L20.7653514,20.2298884 L20.7653514,25.7470646 Z M20.7653514,15.4672062 L16.2347293,15.4672062 L16.2347293,9.95002992 L20.7653514,9.95002992 L20.7653514,15.4672062 Z M29.1657587,46.3069432 L24.6351366,46.3069432 L24.6351366,40.789767 L29.1657587,40.789767 L29.1657587,46.3069432 Z M29.1657587,36.0270039 L24.6351366,36.0270039 L24.6351366,30.5098277 L29.1657587,30.5098277 L29.1657587,36.0270039 Z M29.1657587,25.7470646 L24.6351366,25.7470646 L24.6351366,20.2298884 L29.1657587,20.2298884 L29.1657587,25.7470646 Z M29.1657587,15.4672062 L24.6351366,15.4672062 L24.6351366,9.95002992 L29.1657587,9.95002992 L29.1657587,15.4672062 Z" id="Shape"></path>
                    <path d="M64.6938925,17 L44.3061887,17 C42.4878011,17 41,18.4873882 41,20.3053702 L41,59.6945486 C41,61.5126118 42.4878011,63 44.3061887,63 L64.6938925,63 C66.5122801,63 68,61.5126118 68,59.6945486 L68,20.3053702 C68,18.4873882 66.51228,17 64.6938925,17 Z M50.0229642,50.8113508 L46.7168567,50.8113508 L46.7168567,46.7828927 L50.0229642,46.7828927 L50.0229642,50.8113508 Z M50.0229642,43.3052892 L46.7168567,43.3052892 L46.7168567,39.2768311 L50.0229642,39.2768311 L50.0229642,43.3052892 Z M50.0229642,35.7993898 L46.7168567,35.7993898 L46.7168567,31.7709317 L50.0229642,31.7709317 L50.0229642,35.7993898 Z M50.0229642,28.2934904 L46.7168566,28.2934904 L46.7168566,24.2649512 L50.0229642,24.2649512 L50.0229642,28.2934904 Z M56.1530943,50.8113508 L52.8469868,50.8113508 L52.8469868,46.7828927 L56.1530943,46.7828927 L56.1530943,50.8113508 Z M56.1530943,43.3052892 L52.8469868,43.3052892 L52.8469868,39.2768311 L56.1530943,39.2768311 L56.1530943,43.3052892 Z M56.1530943,35.7993898 L52.8469868,35.7993898 L52.8469868,31.7709317 L56.1530943,31.7709317 L56.1530943,35.7993898 Z M56.1530943,28.2934904 L52.8469868,28.2934904 L52.8469868,24.2649512 L56.1530943,24.2649512 L56.1530943,28.2934904 Z M62.2831434,50.8113508 L58.9770359,50.8113508 L58.9770359,46.7828927 L62.2831434,46.7828927 L62.2831434,50.8113508 Z M62.2831434,43.3052892 L58.9770359,43.3052892 L58.9770359,39.2768311 L62.2831434,39.2768311 L62.2831434,43.3052892 Z M62.2831434,35.7993898 L58.9770359,35.7993898 L58.9770359,31.7709317 L62.2831434,31.7709317 L62.2831434,35.7993898 Z M62.2831434,28.2934904 L58.9770358,28.2934904 L58.9770358,24.2649512 L62.2831434,24.2649512 L62.2831434,28.2934904 Z" id="Shape"></path>
                </g>
            </g>
        </g>
    </g>
</svg>