<?xml version="1.0" encoding="UTF-8"?>
<svg width="86px" height="86px" viewBox="0 0 86 86" version="1.1" xmlns="http://www.w3.org/2000/svg" xmlns:xlink="http://www.w3.org/1999/xlink">
    <!-- Generator: Sketch 49.1 (51147) - http://www.bohemiancoding.com/sketch -->
    <title>pcSSHANGSG</title>
    <desc>Created with Sketch.</desc>
    <defs></defs>
    <g id="Page-1" stroke="none" stroke-width="1" fill="none" fill-rule="evenodd">
        <g id="首页-PC" transform="translate(-917.000000, -3862.000000)" fill="#000000" fill-rule="nonzero">
            <g id="Group-11" transform="translate(917.000000, 3862.000000)">
                <g id="pcsahgnshi" transform="translate(9.000000, 9.000000)">
                    <path d="M5,41.9773755 L13.4412033,41.9773755 L13.4412033,60.9547511 L5,60.9547511 L5,41.9773755 Z M22.8486782,32.0045249 L31.2898815,32.0045249 L31.2898815,60.9909502 L22.8486782,60.9909502 L22.8486782,32.0045249 Z M39.047402,40.719457 L47.4886052,40.719457 L47.4886052,61 L39.047402,61 L39.047402,40.719457 Z M56.5587967,23 L65,23 L65,60.9909502 L56.5587967,60.9909502 L56.5587967,23 Z" id="Shape"></path>
                    <polygon id="Shape" points="48.2311631 0 57.0622211 9.4195489 37.7697558 27.6721805 23.1509582 14.4902255 23.1509582 14.4541354 23.1147283 14.4180451 23.0060383 14.562406 0 32.7067669 2.5995012 36 22.9245209 19.8857143 37.7969283 33.3744361 37.8693883 33.3022557 37.9056183 33.3383459 59.9062746 12.4962406 67.958388 21.1037594 69 0.442105285"></polygon>
                </g>
            </g>
        </g>
    </g>
</svg>