<?xml version="1.0" encoding="UTF-8"?>
<svg width="86px" height="86px" viewBox="0 0 86 86" version="1.1" xmlns="http://www.w3.org/2000/svg" xmlns:xlink="http://www.w3.org/1999/xlink">
    <!-- Generator: Sketch 49.1 (51147) - http://www.bohemiancoding.com/sketch -->
    <title>PCTOUZIZ</title>
    <desc>Created with Sketch.</desc>
    <defs></defs>
    <g id="Page-1" stroke="none" stroke-width="1" fill="none" fill-rule="evenodd">
        <g id="首页-PC" transform="translate(-741.000000, -3687.000000)" fill="#000000" fill-rule="nonzero">
            <g id="Group-7" transform="translate(741.000000, 3687.000000)">
                <g id="pctouzi" transform="translate(15.000000, 9.000000)">
                    <path d="M38.4574504,62.6956002 L0.86857054,62.6956002 C0.388839422,62.6956002 0,62.4137447 0,62.066925 L0,60.389662 C0,60.0420036 0.388903566,59.7603416 0.86857054,59.7603416 L36.3932403,59.7603416 L38.4573863,62.6955357 L38.4574504,62.6956002 Z M9.24183173,56.9583014 C9.24183173,57.3349905 8.80597494,57.6405221 8.26883516,57.6405221 L0.973509718,57.6405221 C0.435022923,57.6405221 0.000192431255,57.3349905 0.000192431255,56.9583014 L0.000192431255,45.1413354 C0.000192431255,44.7646463 0.435215354,44.4591147 0.973509718,44.4591147 L8.2688993,44.4591147 C8.80603908,44.4591147 9.24189587,44.7646463 9.24189587,45.1413354 L9.24189587,56.9583014 L9.24183173,56.9583014 Z M21.0344039,56.6463185 C21.0344039,57.225319 20.5991885,57.6950998 20.0624978,57.6950998 L12.7655046,57.6950998 C12.2284931,57.6950998 11.7933419,57.2253836 11.7933419,56.6463185 L11.7933419,38.4687974 C11.7933419,37.8896033 12.2285572,37.4207257 12.7655046,37.4207257 L20.0624978,37.4207257 C20.5993168,37.4207257 21.0344039,37.8896033 21.0344039,38.4687974 L21.0344039,56.6463185 Z M33.5183815,56.7449582 C33.5183815,57.5011749 33.0825247,57.6949708 32.5464754,57.6949708 L25.2496105,57.6949708 C24.7124707,57.6949708 24.2774478,57.5011749 24.2774478,56.7449582 L24.2774478,32.1741742 C24.2774478,31.4178931 24.7124707,31.2241617 25.2496105,31.2241617 L32.5464754,31.2241617 C33.082653,31.2241617 33.5183815,31.4179576 33.5183815,32.1741742 L33.5183815,56.7449582 Z M36.6725222,48.8899044 L36.6725222,17.434465 C36.6725222,16.231047 37.1085073,16.2369176 37.6460319,16.2369176 L44.9418064,16.2369176 C45.4792027,16.2369176 45.9144822,16.2311115 45.9144822,17.434465 C45.9144822,17.434465 45.9916472,41.1049112 45.9144822,42.0391181 C38.0446854,42.1429834 36.6725222,48.8899044 36.6725222,48.8899044 Z M41.7255104,7.60171291 L35.6268508,0 L28.6386456,7.60171291 L33.9707233,7.60171291 C32.7723256,13.1965034 26.8252376,31.8416763 0.486466212,34.5801071 C0.486466212,34.5801071 31.121073,37.9351492 36.4298664,7.60171291 L41.7255104,7.60171291 Z M47.5782429,43.0249996 C41.2702181,43.0249996 36.1563575,48.1682019 36.1563575,54.5124353 C36.1563575,60.8567332 41.2701539,66 47.5782429,66 C53.8862035,66 59,60.8567977 59,54.5124353 C59,48.1682019 53.8862035,43.0249996 47.5782429,43.0249996 Z M51.4267397,54.1935495 L51.4267397,55.5260572 L48.7231447,55.5260572 L48.7231447,56.7270883 L51.4267397,56.7270883 L51.4267397,58.0594024 L48.7231447,58.0594024 L48.7231447,61.0622703 L46.2606019,61.0622703 L46.2606019,58.0594024 L43.5741333,58.0594024 L43.5741333,56.7270883 L46.2606019,56.7270883 L46.2606019,55.5260572 L43.5741333,55.5260572 L43.5741333,54.1935495 L45.6406526,54.1935495 L42.833722,48.8637768 L45.6406526,48.8638413 L46.8459778,51.8666446 C47.1558563,52.6173777 47.3454011,53.2551493 47.5692627,53.9121456 L47.6037721,53.9121456 C47.8276338,53.2929537 48.0514955,52.5796379 48.3441834,51.8477425 L49.5668275,48.8637768 L52.3221223,48.8637768 L49.3774751,54.1936785 L51.4268038,54.1936785 L51.4267397,54.1935495 Z" id="Shape"></path>
                </g>
            </g>
        </g>
    </g>
</svg>