<?xml version="1.0" encoding="UTF-8"?>
<svg width="86px" height="86px" viewBox="0 0 86 86" version="1.1" xmlns="http://www.w3.org/2000/svg" xmlns:xlink="http://www.w3.org/1999/xlink">
    <!-- Generator: Sketch 49.1 (51147) - http://www.bohemiancoding.com/sketch -->
    <title>PCTUIGUAN</title>
    <desc>Created with Sketch.</desc>
    <defs></defs>
    <g id="Page-1" stroke="none" stroke-width="1" fill="none" fill-rule="evenodd">
        <g id="首页-PC" transform="translate(-1450.000000, -3686.000000)" fill="#000000" fill-rule="nonzero">
            <g id="Group-9" transform="translate(1450.000000, 3686.000000)">
                <g id="pctuiguan" transform="translate(6.000000, 18.000000)">
                    <path d="M36.99556,12.8171227 C43.14718,12.8171227 48.14218,17.7670122 48.14218,23.8485351 C48.14218,29.9315229 43.14792,34.8806799 36.99556,34.8806799 C30.85282,34.8806799 25.85856,29.9315229 25.85856,23.8485351 C25.85856,17.7670122 30.85282,12.8171227 36.99556,12.8171227 Z M37.10138,36.8451078 C31.02154,36.8451078 26.07242,41.7393311 26.07242,47.7578635 L26.07242,53 L48.1185,53 L48.1185,47.7578635 C48.1185,41.7393311 43.17012,36.8451078 37.10138,36.8451078 Z M53.2097,12.5607656 C55.4963,15.7615672 56.86308,19.6450111 56.86308,23.8485351 C56.86308,28.8277225 54.92502,33.3300857 51.82664,36.8004284 L54.70228,39.6430625 C58.52882,35.4541874 60.87536,29.9241985 60.87536,23.8492676 C60.87536,18.5463378 59.0742,13.6638336 56.08534,9.71886401 L53.2097,12.5607656 Z M21.18028,12.0788143 L18.28984,9.21420674 C15.07084,13.2419431 13.12538,18.3229409 13.12538,23.8485351 C13.12538,30.1483278 15.64952,35.8665561 19.71582,40.1045053 L22.57592,37.2809149 C19.22742,33.7600332 17.13692,29.0540492 17.13692,23.8485351 C17.13692,19.4179519 18.6739,15.3719044 21.18028,12.0788143 Z M65.43968,0.462907684 L62.58772,3.28210337 C67.2105,8.90071863 69.9855,16.0567441 69.9855,23.8485351 C69.9855,32.4115948 66.61702,40.1916667 61.14694,46.0212272 L63.98262,48.8235766 C70.1705,42.2718214 74,33.5044085 74,23.8492676 C74,14.9631979 70.77952,6.80884467 65.43968,0.462907684 Z M11.82002,2.80161692 L8.98508,0 C3.40326,6.41332228 0,14.7376036 0,23.8485351 C0,33.7278054 3.99674,42.693712 10.44214,49.2886816 L13.2682,46.4848673 C7.55244,40.6084301 4.0145,32.6364566 4.0145,23.8485351 C4.0145,15.8296849 6.95822,8.49201216 11.82002,2.80161692 Z" id="Shape"></path>
                </g>
            </g>
        </g>
    </g>
</svg>