<?xml version="1.0" encoding="UTF-8"?>
<svg width="53px" height="58px" viewBox="0 0 53 58" version="1.1" xmlns="http://www.w3.org/2000/svg" xmlns:xlink="http://www.w3.org/1999/xlink">
    <!-- Generator: Sketch 49.1 (51147) - http://www.bohemiancoding.com/sketch -->
    <title>PCweibai</title>
    <desc>Created with Sketch.</desc>
    <defs></defs>
    <g id="Page-1" stroke="none" stroke-width="1" fill="none" fill-rule="evenodd">
        <g id="首页-PC" transform="translate(-552.000000, -7435.000000)">
            <g id="Group-31" transform="translate(552.000000, 7435.000000)">
                <g id="PCweibai">
                    <path d="M31.4932113,1.33340986 L47.9932113,10.8424553 C51.0910471,12.6277561 53,15.9311693 53,19.5066253 L53,38.4933747 C53,42.0688307 51.0910471,45.3722439 47.9932113,47.1575447 L31.4932113,56.6665901 C28.4026528,58.4476969 24.5973472,58.4476969 21.5067887,56.6665901 L5.00678872,47.1575447 C1.90895287,45.3722439 0,42.0688307 -3.55271368e-15,38.4933747 L-1.42108547e-14,19.5066253 C-1.42108547e-14,15.9311693 1.90895287,12.6277561 5.00678872,10.8424553 L21.5067887,1.33340986 C24.5973472,-0.447696866 28.4026528,-0.447696866 31.4932113,1.33340986 Z" id="Polygon-Copy-10" fill="#E6ECF2"></path>
                    <g id="微博-copy-3" transform="translate(13.000000, 18.000000)" fill="#BDC2C5" fill-rule="nonzero">
                        <path d="M20.7960903,10.5821225 C19.7034354,10.3724338 20.233802,9.78991224 20.233802,9.78991224 C20.233802,9.78991224 21.302971,8.04234768 20.0223008,6.77249193 C18.4361218,5.19969967 14.5807866,6.9730555 14.5807866,6.9730555 C13.108778,7.42658899 13.4981651,6.76583815 13.7062792,5.64325249 C13.7062792,4.32013491 13.2497255,2.08076184 9.3271918,3.4039111 C5.40801321,4.73368243 2.04441266,9.39214367 2.04441266,9.39214367 C-0.295361109,12.4885854 0.0134708672,14.8810902 0.0134708672,14.8810902 C0.598414302,20.1636432 6.25900269,21.6141012 10.661576,21.9577841 C15.2941198,22.3172777 21.5446683,20.3741874 23.4413409,16.3814831 C25.336288,12.3820934 21.8921323,10.7993205 20.7960903,10.5821225 Z M11.0039913,20.4682273 C6.40669246,20.6812429 2.68894965,18.3944697 2.68894965,15.3520502 C2.68894965,12.3055434 6.40669246,9.86313539 11.0039913,9.65262286 C15.6063069,9.44204695 19.3308239,11.3227503 19.3308239,14.3618111 C19.3308239,17.4042306 15.6063069,20.2601862 11.0039913,20.4682273 Z" id="Shape"></path>
                        <path d="M9.74321283,12.0465114 C5.52949127,12.6072024 6.01723594,17.0942525 6.01723594,17.0942525 C6.01723594,17.0942525 5.97366289,18.5154242 7.1463516,19.238653 C9.611766,20.7563678 12.1497148,19.8376038 13.432515,17.9547995 C14.7153152,16.0711347 13.9615333,11.4901892 9.74321283,12.0465114 Z M8.68063559,18.3442482 C7.89323518,18.4493964 7.26027607,17.933055 7.26027607,17.1855001 C7.26027607,16.4396994 7.82294195,15.6599415 8.61034236,15.5669729 C9.51390848,15.4687088 10.1010242,16.0606762 10.1010242,16.8090915 C10.1009951,17.5540979 9.46346621,18.242509 8.68063559,18.3442482 Z M11.1636014,15.9390127 C10.8975642,16.16503 10.5688306,16.1336874 10.4281569,15.8624932 C10.2813998,15.5973556 10.336441,15.1722949 10.6062912,14.9497859 C10.9189578,14.6855419 11.2430924,14.7620284 11.3837662,15.0263054 C11.5244108,15.2974996 11.4234971,15.7051846 11.1636014,15.9390127 Z" id="Shape"></path>
                        <path d="M24.1946699,9 C24.5699623,9 24.8885843,8.72269578 24.942648,8.36108672 C24.9494382,8.33412971 24.952785,8.31051021 24.952785,8.28018359 C25.5216449,3.18010938 20.762363,4.05749597 20.762363,4.05749597 C20.3397326,4.05749597 20,4.39885518 20,4.82448715 C20,5.24254549 20.3397648,5.58307032 20.762363,5.58307032 C24.1803172,4.83125851 23.4264178,8.23974806 23.4264178,8.23974806 C23.4264178,8.66201041 23.771235,9 24.1946699,9 Z" id="Shape"></path>
                        <path d="M22.5808402,0.169093345 C20.9955274,-0.190793516 19.3637182,0.122631137 18.9067571,0.20786195 C18.8709,0.21101753 18.8382998,0.244226315 18.8057306,0.250507401 C18.789415,0.25366298 18.7796442,0.27028238 18.7796442,0.27028238 C18.3299413,0.394191636 18,0.798707481 18,1.27625253 C18,1.84536962 18.4765647,2.31362825 19.069634,2.31362825 C19.069634,2.31362825 19.6480317,2.23873572 20.0391101,2.09036315 C20.4268695,1.93883501 23.7131931,1.97754352 25.3441338,4.63280224 C26.2353507,6.5705713 25.7360186,7.86742621 25.6732686,8.07578492 C25.6732686,8.07578492 25.4614449,8.57935605 25.4614449,9.07505322 C25.4614449,9.64732592 25.9388471,10 26.5286595,10 C27.0215088,10 27.436192,9.9319596 27.55676,9.12052367 L27.5632739,9.12052367 C29.3148446,3.47055559 25.4191049,0.810818931 22.5808402,0.169093345 Z" id="Shape"></path>
                    </g>
                </g>
            </g>
        </g>
    </g>
</svg>