<?xml version="1.0" encoding="UTF-8"?>
<svg width="53px" height="58px" viewBox="0 0 53 58" version="1.1" xmlns="http://www.w3.org/2000/svg" xmlns:xlink="http://www.w3.org/1999/xlink">
    <!-- Generator: Sketch 49.1 (51147) - http://www.bohemiancoding.com/sketch -->
    <title>PCweixin</title>
    <desc>Created with Sketch.</desc>
    <defs></defs>
    <g id="Page-1" stroke="none" stroke-width="1" fill="none" fill-rule="evenodd">
        <g id="首页-PC" transform="translate(-492.000000, -7436.000000)">
            <g id="Group-30" transform="translate(492.000000, 7436.000000)">
                <g id="PCweixin">
                    <path d="M31.4932113,1.33340986 L47.9932113,10.8424553 C51.0910471,12.6277561 53,15.9311693 53,19.5066253 L53,38.4933747 C53,42.0688307 51.0910471,45.3722439 47.9932113,47.1575447 L31.4932113,56.6665901 C28.4026528,58.4476969 24.5973472,58.4476969 21.5067887,56.6665901 L5.00678872,47.1575447 C1.90895287,45.3722439 0,42.0688307 -3.55271368e-15,38.4933747 L-1.42108547e-14,19.5066253 C-1.42108547e-14,15.9311693 1.90895287,12.6277561 5.00678872,10.8424553 L21.5067887,1.33340986 C24.5973472,-0.447696866 28.4026528,-0.447696866 31.4932113,1.33340986 Z" id="Polygon-Copy-9" fill="#E6ECF2"></path>
                    <g id="微信-copy-3" transform="translate(11.000000, 16.000000)" fill="#BDC2C5" fill-rule="nonzero">
                        <path d="M21.6600413,7.86486937 C22.0281476,7.86486937 22.3900823,7.89273247 22.7541406,7.93260779 C21.7740832,3.38093087 16.8961269,0 11.326055,0 C5.10003453,0 0,4.23058958 0,9.60614688 C0,12.7078181 1.69599665,15.2550404 4.53208104,17.2336506 L3.40005619,20.6305977 L7.36003617,18.6518883 C8.77602117,18.9291293 9.91206088,19.2164964 11.3260882,19.2164964 C11.6820504,19.2164964 12.0341305,19.2005132 12.3821957,19.1745694 C12.1621747,18.4185267 12.0321728,17.6286644 12.0321728,16.8048502 C12.0338982,11.8699731 16.2820191,7.86486937 21.6600413,7.86486937 Z M15.5720523,4.80297416 C16.4280804,4.80297416 16.989995,5.36347887 16.989995,6.21320378 C16.989995,7.05882534 16.4280804,7.6253858 15.5720523,7.6253858 C14.7259121,7.6253858 13.8739985,7.05882534 13.8739985,6.21320378 C13.8740648,5.36152651 14.7239213,4.80297416 15.5720523,4.80297416 Z M7.64602031,7.625452 C6.7959648,7.625452 5.93993674,7.05889154 5.93993674,6.21326998 C5.93993674,5.36354507 6.7959648,4.80304036 7.64602031,4.80304036 C8.49597631,4.80304036 9.06004765,5.36149339 9.06004765,6.21326998 C9.06001448,7.05892462 8.49587677,7.625452 7.64602031,7.625452 Z M32,16.6691418 C32,12.1532368 27.4680185,8.47312523 22.3779714,8.47312523 C16.9881369,8.47312523 12.7459553,12.1552885 12.7459553,16.6691418 C12.7459553,21.1969266 16.9900614,24.865059 22.3779714,24.865059 C23.5061141,24.865059 24.6441114,24.583847 25.7761363,24.3006495 L28.8820458,26 L28.0299331,23.1757352 C30.3039702,21.4722152 32,19.2162648 32,16.6691418 Z M19.2539451,15.2549412 C18.6920305,15.2549412 18.1219203,14.6964881 18.1219203,14.1259566 C18.1219203,13.5634995 18.6920305,12.9970714 19.2539451,12.9970714 C20.1139548,12.9970714 20.6719873,13.5635326 20.6719873,14.1259566 C20.6719873,14.696455 20.113988,15.2549412 19.2539451,15.2549412 Z M25.48408,15.2549412 C24.9260807,15.2549412 24.3580941,14.6964881 24.3580941,14.1259566 C24.3580941,13.5634995 24.9241231,12.9970714 25.48408,12.9970714 C26.3360932,12.9970714 26.9020227,13.5635326 26.9020227,14.1259566 C26.9019895,14.696455 26.3360932,15.2549412 25.48408,15.2549412 Z" id="Shape"></path>
                    </g>
                </g>
            </g>
        </g>
    </g>
</svg>