<?xml version="1.0" encoding="UTF-8"?>
<svg width="34px" height="65px" viewBox="0 0 34 65" version="1.1" xmlns="http://www.w3.org/2000/svg" xmlns:xlink="http://www.w3.org/1999/xlink">
    <!-- Generator: Sketch 49.1 (51147) - http://www.bohemiancoding.com/sketch -->
    <title>PCxiahua</title>
    <desc>Created with Sketch.</desc>
    <defs></defs>
    <g id="Page-1" stroke="none" stroke-width="1" fill="none" fill-rule="evenodd">
        <g id="首页-PC" transform="translate(-943.000000, -950.000000)" fill="#71B9F4">
            <g id="pcxiahua" transform="translate(942.000000, 935.000000)">
                <g id="PCxiahua">
                    <path d="M22.4668863,74.0896035 L28.2007195,58.3360261 C28.569773,57.3220598 29.6909322,56.7992547 30.7048985,57.1683083 C31.7188648,57.5373618 32.2416699,58.658521 31.8726163,59.6724873 L25.8969728,76.090433 C25.7348175,76.5359509 25.4274638,76.8866472 25.0478017,77.1085326 C24.6992491,77.643497 24.0957448,77.9971545 23.4096394,77.9971545 L5.93802649,77.9971545 C4.85898607,77.9971545 3.98425099,77.1224194 3.98425099,76.043379 C3.98425099,74.9643386 4.85898607,74.0896035 5.93802649,74.0896035 L22.4668863,74.0896035 Z" id="Combined-Shape" transform="translate(17.987613, 67.523552) rotate(-325.000000) translate(-17.987613, -67.523552) "></path>
                    <path d="M22.4668863,49.0896035 L28.2007195,33.3360261 C28.569773,32.3220598 29.6909322,31.7992547 30.7048985,32.1683083 C31.7188648,32.5373618 32.2416699,33.658521 31.8726163,34.6724873 L25.8969728,51.090433 C25.7348175,51.5359509 25.4274638,51.8866472 25.0478017,52.1085326 C24.6992491,52.643497 24.0957448,52.9971545 23.4096394,52.9971545 L5.93802649,52.9971545 C4.85898607,52.9971545 3.98425099,52.1224194 3.98425099,51.043379 C3.98425099,49.9643386 4.85898607,49.0896035 5.93802649,49.0896035 L22.4668863,49.0896035 Z" id="Combined-Shape-Copy" opacity="0.5" transform="translate(17.987613, 42.523552) rotate(-325.000000) translate(-17.987613, -42.523552) "></path>
                    <path d="M22.4668863,24.0896035 L28.2007195,8.33602613 C28.569773,7.32205981 29.6909322,6.79925473 30.7048985,7.16830829 C31.7188648,7.53736184 32.2416699,8.65852097 31.8726163,9.67248728 L25.8969728,26.090433 C25.7348175,26.5359509 25.4274638,26.8866472 25.0478017,27.1085326 C24.6992491,27.643497 24.0957448,27.9971545 23.4096394,27.9971545 L5.93802649,27.9971545 C4.85898607,27.9971545 3.98425099,27.1224194 3.98425099,26.043379 C3.98425099,24.9643386 4.85898607,24.0896035 5.93802649,24.0896035 L22.4668863,24.0896035 Z" id="Combined-Shape-Copy-2" opacity="0.1" transform="translate(17.987613, 17.523552) rotate(-325.000000) translate(-17.987613, -17.523552) "></path>
                </g>
            </g>
        </g>
    </g>
</svg>