<?xml version="1.0" encoding="UTF-8"?>
<svg width="86px" height="86px" viewBox="0 0 86 86" version="1.1" xmlns="http://www.w3.org/2000/svg" xmlns:xlink="http://www.w3.org/1999/xlink">
    <!-- Generator: Sketch 49.1 (51147) - http://www.bohemiancoding.com/sketch -->
    <title>pcyunjis</title>
    <desc>Created with Sketch.</desc>
    <defs></defs>
    <g id="Page-1" stroke="none" stroke-width="1" fill="none" fill-rule="evenodd">
        <g id="首页-PC" transform="translate(-226.000000, -6870.000000)" fill="#FFFFFF" fill-rule="nonzero">
            <g id="Group-21" transform="translate(226.000000, 6870.000000)">
                <g id="pcyunjis" transform="translate(5.000000, 12.000000)">
                    <path d="M23.3542971,24.3761851 C24.9770955,14.9731341 33.1139978,7.80351658 42.8787897,7.80351658 C43.804103,7.80351658 44.7090518,7.88709352 45.6,8.01181608 C43.1575293,3.25564409 38.2496776,0 32.5794289,0 C24.4781645,0 17.9106038,6.63472492 17.9106037,14.8188382 C17.9106037,15.5530297 18.0226086,16.2563619 18.1244313,16.9622658 C17.0107461,16.6896763 15.8652413,16.5045212 14.6688252,16.5045212 C6.56756077,16.5070928 0,23.1418177 0,31.3259309 C0,35.8763749 2.03390736,39.9433585 5.22986572,42.6615385 C6.02917353,32.9383234 13.7256929,25.1630944 23.3542971,24.3761851 Z" id="Shape"></path>
                    <path d="M61.3096202,29.2659061 C59.766015,29.2659061 58.3078116,29.5729219 56.9095168,30.0205458 C57.0408061,29.2207568 57.1529756,28.4119378 57.1529756,27.5747392 C57.1529756,19.3640014 50.5757644,12.7076923 42.4625958,12.7076923 C34.3494272,12.7076923 27.772216,19.3640014 27.772216,27.5747392 C27.772216,28.3113192 27.8843855,29.0169395 27.9863577,29.7251399 C26.8710361,29.4516637 25.7238481,29.2659062 24.5256739,29.2659061 C16.4125054,29.2659061 9.83529412,35.9222152 9.83529412,44.1329531 C9.83529412,52.343691 16.4125054,59 24.5256739,59 L61.3096202,59 C69.4227887,59 76,52.3436909 76,44.1329531 C76,35.9209253 69.4227887,29.2659062 61.3096202,29.2659061 Z" id="Shape"></path>
                </g>
            </g>
        </g>
    </g>
</svg>