<?xml version="1.0" encoding="UTF-8"?>
<svg width="86px" height="86px" viewBox="0 0 86 86" version="1.1" xmlns="http://www.w3.org/2000/svg" xmlns:xlink="http://www.w3.org/1999/xlink">
    <!-- Generator: Sketch 49.1 (51147) - http://www.bohemiancoding.com/sketch -->
    <title>pczhuangxie</title>
    <desc>Created with Sketch.</desc>
    <defs></defs>
    <g id="Page-1" stroke="none" stroke-width="1" fill="none" fill-rule="evenodd">
        <g id="首页-PC" transform="translate(-144.000000, -4009.000000)" fill="#000000" fill-rule="nonzero">
            <g id="Group-5-Copy" transform="translate(144.000000, 4009.000000)">
                <g id="pczhuangxie" transform="translate(12.000000, 12.000000)">
                    <path d="M18.3978495,39.9677419 C18.3978495,39.9677419 26.141727,35.9686875 27.1815786,34.9239056 L57.5857027,7.05176213 C58.6255543,6.00698016 58.6255543,1.63886456 57.5857027,0.594082661 C56.5458511,-0.448916373 51.5346894,-0.00319028173 50.4948378,1.03980875 L23.4161092,31.1441484 C22.3780322,32.1871474 18.3978495,39.9677419 18.3978495,39.9677419 Z" id="Shape"></path>
                    <path d="M55.4101238,18.4950456 C53.6428551,18.4950456 52.182627,19.7733401 51.8845119,21.4556831 L51.7684791,21.4556831 L51.7684791,48.5376504 C51.7684791,50.3648072 50.2886146,51.8487016 48.4624369,51.8487016 L10.446522,51.8487016 C8.62034434,51.8487016 7.14047985,50.3665949 7.14047985,48.5376504 L7.14047985,10.4659252 C7.14047985,8.63698065 8.62034434,7.15308623 10.446522,7.15308623 L35.4435569,7.15308623 C35.5685153,7.16738879 35.6934737,7.19063057 35.8237874,7.19063057 C37.8070557,7.19063057 39.4136637,5.58337628 39.4136637,3.59531529 C39.4136637,1.60725429 37.8088409,0 35.8237874,0 C35.7827297,0 35.743457,0.0107269215 35.7023993,0.012514781 L35.7023993,0.0017877024 L7.14047985,0.0017877024 C3.19714986,0.0017877024 0,3.20378159 0,7.15308615 L0,51.8487016 C0,55.7980061 3.19714986,59 7.14047985,59 L51.7684791,59 C55.711809,59 58.9089589,55.7980061 58.9089589,51.8487016 L58.9089589,22.8716402 C58.9642976,22.6177691 59,22.3585346 59,22.0885731 C59.0000001,20.1022998 57.3933921,18.4950456 55.4101238,18.4950456 Z" id="Shape"></path>
                </g>
            </g>
        </g>
    </g>
</svg>