<?xml version="1.0" encoding="UTF-8"?>
<svg width="93px" height="93px" viewBox="0 0 93 93" version="1.1" xmlns="http://www.w3.org/2000/svg" xmlns:xlink="http://www.w3.org/1999/xlink">
    <!-- Generator: Sketch 49.1 (51147) - http://www.bohemiancoding.com/sketch -->
    <title>pczhuangxie@2x</title>
    <desc>Created with Sketch.</desc>
    <defs></defs>
    <g id="Page-1" stroke="none" stroke-width="1" fill="none" fill-rule="evenodd">
        <g id="首页-PC" transform="translate(-374.000000, -3687.000000)" fill="#FFFFFF" fill-rule="nonzero">
            <g id="Group-5" transform="translate(374.000000, 3687.000000)">
                <g id="pczhuangxie">
                    <path d="M29,63 C29,63 41.206451,56.6964058 42.8455391,55.049546 L90.7706839,11.1154895 C92.409772,9.46862974 92.409772,2.58329498 90.7706839,0.936435381 C89.1315958,-0.707613945 81.2326459,-0.00502874916 79.5935578,1.63902058 L36.9101383,49.0916238 C35.2738474,50.735673 29,63 29,63 Z" id="Shape"></path>
                    <path d="M87.3413816,29.1532074 C84.5556868,29.1532074 82.2539713,31.1681463 81.7840612,33.8199751 L81.6011619,33.8199751 L81.6011619,76.5084998 C81.6011619,79.3885944 79.2684941,81.7276144 76.3899429,81.7276144 L16.4665517,81.7276143 C13.5880004,81.7276143 11.2553327,79.3914123 11.2553327,76.5084997 L11.2553327,16.4971363 C11.2553327,13.6142237 13.5880004,11.2752037 16.4665517,11.2752037 L55.8686575,11.2752037 C56.0656258,11.2977484 56.2625942,11.3343838 56.4680039,11.3343838 C59.5941726,11.3343838 62.1266224,8.80091515 62.1266224,5.66719189 C62.1266224,2.53346863 59.5969864,0 56.4680039,0 C56.4032857,0 56.3413814,0.0169085373 56.2766633,0.0197266888 L56.2766634,0.00281790379 L11.2553327,0.00281790379 C5.03957521,0.00281790379 0,5.05002861 0,11.2752036 L0,81.7276143 C0,87.9527893 5.03957521,93 11.2553327,93 L81.6011619,93 C87.8169193,93 92.8564945,87.9527893 92.8564945,81.7276143 L92.8564945,36.0519075 C92.9437234,35.6517378 93,35.2431138 93,34.8175813 C93.0000001,31.686676 90.4675503,29.1532074 87.3413816,29.1532074 Z" id="Shape"></path>
                </g>
            </g>
        </g>
    </g>
</svg>