<?xml version="1.0" encoding="UTF-8"?>
<svg width="40px" height="40px" viewBox="0 0 40 40" version="1.1" xmlns="http://www.w3.org/2000/svg" xmlns:xlink="http://www.w3.org/1999/xlink">
    <!-- Generator: Sketch 49.1 (51147) - http://www.bohemiancoding.com/sketch -->
    <title>shangye</title>
    <desc>Created with Sketch.</desc>
    <defs></defs>
    <g id="Page-1" stroke="none" stroke-width="1" fill="none" fill-rule="evenodd">
        <g id="首页-手机端" transform="translate(-84.000000, -2416.000000)" fill="#000000" fill-rule="nonzero">
            <g id="Group-11" transform="translate(84.000000, 2162.000000)">
                <g id="shangye" transform="translate(5.000000, 260.000000)">
                    <path d="M14.040812,0 L1.95918794,0 C0.88166954,0 0,0.873057262 0,1.94012721 L0,25.0598728 C0,26.1269428 0.88166954,27 1.95918794,27 L14.0408121,27 C15.1183654,27 16,26.1269427 16,25.0598728 L16,1.94012721 C15.999965,0.873057228 15.1183654,0 14.040812,0 Z M5.34693296,19.8458328 L3.38774502,19.8458328 L3.38774502,17.4813287 L5.34693296,17.4813287 L5.34693296,19.8458328 Z M5.34693296,15.4401445 L3.38774502,15.4401445 L3.38774502,13.0756404 L5.34693296,13.0756404 L5.34693296,15.4401445 Z M5.34693296,11.0344563 L3.38774502,11.0344563 L3.38774502,8.66995217 L5.34693296,8.66995217 L5.34693296,11.0344563 Z M5.34693296,6.62880264 L3.38774502,6.62880264 L3.38774502,4.26429854 L5.34693296,4.26429854 L5.34693296,6.62880264 Z M8.97961143,19.8458328 L7.02042349,19.8458328 L7.02042349,17.4813287 L8.97961143,17.4813287 L8.97961143,19.8458328 Z M8.97961143,15.4401445 L7.02042349,15.4401445 L7.02042349,13.0756404 L8.97961143,13.0756404 L8.97961143,15.4401445 Z M8.97961143,11.0344563 L7.02042349,11.0344563 L7.02042349,8.66995217 L8.97961143,8.66995217 L8.97961143,11.0344563 Z M8.97961143,6.62880264 L7.02042349,6.62880264 L7.02042349,4.26429854 L8.97961143,4.26429854 L8.97961143,6.62880264 Z M12.61222,19.8458328 L10.6530321,19.8458328 L10.6530321,17.4813287 L12.61222,17.4813287 L12.61222,19.8458328 Z M12.61222,15.4401445 L10.6530321,15.4401445 L10.6530321,13.0756404 L12.61222,13.0756404 L12.61222,15.4401445 Z M12.61222,11.0344563 L10.6530321,11.0344563 L10.6530321,8.66995217 L12.61222,8.66995217 L12.61222,11.0344563 Z M12.61222,6.62880264 L10.6530321,6.62880264 L10.6530321,4.26429854 L12.61222,4.26429854 L12.61222,6.62880264 Z" id="Shape"></path>
                    <path d="M28.5306189,7 L19.4694172,7 C18.6612449,7 18,7.64669054 18,8.4371175 L18,25.5628472 C18,26.3533095 18.6612449,27 19.4694172,27 L28.5306189,27 C29.3387911,27 30,26.3533095 30,25.5628472 L30,8.4371175 C30,7.64669054 29.3387911,7 28.5306189,7 Z M22.0102063,21.7005873 L20.5408252,21.7005873 L20.5408252,19.9490838 L22.0102063,19.9490838 L22.0102063,21.7005873 Z M22.0102063,18.4370823 L20.5408252,18.4370823 L20.5408252,16.6855787 L22.0102063,16.6855787 L22.0102063,18.4370823 Z M22.0102063,15.1736477 L20.5408252,15.1736477 L20.5408252,13.4221442 L22.0102063,13.4221442 L22.0102063,15.1736477 Z M22.0102063,11.9102132 L20.5408252,11.9102132 L20.5408252,10.1586745 L22.0102063,10.1586745 L22.0102063,11.9102132 Z M24.7347086,21.7005873 L23.2653275,21.7005873 L23.2653275,19.9490838 L24.7347086,19.9490838 L24.7347086,21.7005873 Z M24.7347086,18.4370823 L23.2653275,18.4370823 L23.2653275,16.6855787 L24.7347086,16.6855787 L24.7347086,18.4370823 Z M24.7347086,15.1736477 L23.2653275,15.1736477 L23.2653275,13.4221442 L24.7347086,13.4221442 L24.7347086,15.1736477 Z M24.7347086,11.9102132 L23.2653275,11.9102132 L23.2653275,10.1586745 L24.7347086,10.1586745 L24.7347086,11.9102132 Z M27.4591748,21.7005873 L25.9897937,21.7005873 L25.9897937,19.9490838 L27.4591748,19.9490838 L27.4591748,21.7005873 Z M27.4591748,18.4370823 L25.9897937,18.4370823 L25.9897937,16.6855787 L27.4591748,16.6855787 L27.4591748,18.4370823 Z M27.4591748,15.1736477 L25.9897937,15.1736477 L25.9897937,13.4221442 L27.4591748,13.4221442 L27.4591748,15.1736477 Z M27.4591748,11.9102132 L25.9897937,11.9102132 L25.9897937,10.1586745 L27.4591748,10.1586745 L27.4591748,11.9102132 Z" id="Shape"></path>
                </g>
            </g>
        </g>
    </g>
</svg>