<?xml version="1.0" encoding="UTF-8"?>
<svg width="45px" height="45px" viewBox="0 0 45 45" version="1.1" xmlns="http://www.w3.org/2000/svg" xmlns:xlink="http://www.w3.org/1999/xlink">
    <!-- Generator: Sketch 49.1 (51147) - http://www.bohemiancoding.com/sketch -->
    <title>Shape@2x</title>
    <desc>Created with Sketch.</desc>
    <defs></defs>
    <g id="Page-1" stroke="none" stroke-width="1" fill="none" fill-rule="evenodd">
        <g id="首页-PC" transform="translate(-1816.000000, -72.000000)" fill="#FFFFFF" fill-rule="nonzero">
            <g id="pcwode" transform="translate(1838.500000, 94.500000) scale(-1, 1) translate(-1838.500000, -94.500000) translate(1816.000000, 72.000000)">
                <path d="M44.9900294,23.1605354 C44.992846,23.0655052 44.9949302,22.9704188 44.9965075,22.875107 C44.9967891,22.8570249 44.9972961,22.838999 44.9975778,22.8209168 C44.9990424,22.7141135 45,22.6071412 45,22.5 C45,10.0937533 34.906303,0 22.5,0 C10.093697,0 0,10.0937533 0,22.5 C0,22.6071413 0.000957612305,22.7141135 0.00242222168,22.8209168 C0.00270386719,22.8389426 0.00315452637,22.8569121 0.00349250977,22.874938 C0.00501345703,22.9703061 0.00721032715,23.0655616 0.00997057617,23.160648 C0.0101395898,23.1659995 0.0103085596,23.1713509 0.0104775732,23.1767586 C0.369586626,35.2712705 10.3201469,45 22.5,45 C34.6797968,45 44.6302444,35.2714958 44.9895225,23.1770403 C44.9896914,23.1715199 44.9898605,23.1660558 44.9900294,23.1605354 Z M23.0000283,2 C34.5796738,2 44,11.4811679 44,23.1354746 C44,29.7287394 40.8741367,36.0099954 35.6223066,40 C33.0249955,39.7143332 29.0158,38.6225865 28.9782644,34.6134085 C28.9716504,34.0219343 28.8734584,33.5019194 28.7942039,33.0848835 C28.6636204,32.3920234 28.6456439,32.1679733 28.7808629,32.0143583 C29.6574115,31.0135858 30.671836,28.4987962 31.0203978,26.4725021 C31.0662434,26.3995634 31.2780034,26.2375851 31.4327816,26.1191309 C32.0214813,25.6673893 32.984916,24.9290138 33.1149908,23.4299031 C33.7817579,22.4633241 33.5236435,21.2157436 33.3128445,20.1968786 C33.2173094,19.7363753 33.1273142,19.3006779 33.1293493,18.961758 C33.1314409,18.4469205 33.1417293,17.9361795 33.1525264,17.4327209 C33.209056,14.7067962 33.2620243,12.131471 31.9586769,10.1626402 C29.8559436,6.9840067 26.6174734,5.16105312 23.0730081,5.16105312 C19.5260555,5.16105312 16.2376695,6.97934139 14.0511029,10.1502372 C12.7842735,11.988723 12.8202829,14.7332521 12.8588361,17.6386786 C12.8644891,18.0779603 12.8706508,18.5198592 12.8717248,18.961246 C12.8727424,19.2944765 12.7678799,19.719307 12.6567991,20.1689435 C12.418244,21.1339864 12.0989646,22.4270824 12.8835395,23.4485645 C12.9935462,24.8689333 13.8455045,25.4903909 14.422333,25.9104992 C14.7364682,26.1397267 14.9308171,26.287709 14.96677,26.4480944 C15.4443889,28.5287227 16.0541742,30.8495024 17.2556553,32.0525346 C17.5455959,32.3428667 17.5347987,32.4101159 17.3281263,33.0450005 C17.194999,33.4548109 17.0289149,33.9645279 17.0227532,34.6150016 C16.9836912,38.6178643 12.9755697,39.711773 10.3787109,39.9999431 C5.12693733,36.0094266 2,29.7281706 2,23.1354177 C2.00000004,11.4811111 11.4203828,2 23.0000283,2 Z" id="Shape"></path>
            </g>
        </g>
    </g>
</svg>