<?xml version="1.0" encoding="UTF-8"?>
<svg width="40px" height="40px" viewBox="0 0 40 40" version="1.1" xmlns="http://www.w3.org/2000/svg" xmlns:xlink="http://www.w3.org/1999/xlink">
    <!-- Generator: Sketch 49.1 (51147) - http://www.bohemiancoding.com/sketch -->
    <title>sidonghui</title>
    <desc>Created with Sketch.</desc>
    <defs></defs>
    <g id="Page-1" stroke="none" stroke-width="1" fill="none" fill-rule="evenodd">
        <g id="首页-手机端" transform="translate(-244.000000, -4401.000000)" fill="#FFFFFF" fill-rule="nonzero">
            <g id="Group-16" transform="translate(90.000000, 4115.000000)">
                <g id="sidonghui" transform="translate(159.000000, 292.000000)">
                    <path d="M14.7223253,0.00555708724 C6.59503356,-0.21577454 0.224994076,6.2028426 0.00533754023,14.1707811 C-0.214318996,22.3600512 6.37537703,29 14.2830122,29 C22.410304,29 28.7803435,22.3600512 29,14.3921127 C29,6.64550585 22.6299605,0.00555708724 14.7223253,0.00555708724 Z M14.5026688,25.6800256 C8.35228582,25.6800256 3.30018555,20.5893982 3.30018555,14.3921127 C3.51984209,8.19482722 8.35228582,3.10419984 14.7223253,3.10419984 C20.8727083,3.32553147 25.9248085,8.19482722 25.9248085,14.6134444 C25.705152,20.8107299 20.6530517,25.9013572 14.5026688,25.6800256 Z" id="Shape"></path>
                    <path d="M15.1113289,7 C11.1179497,7 8.01198811,10.0130459 8.01198811,13.886962 C7.79013371,17.5456605 10.6742409,20.7739239 14.4457657,20.9891415 L14.8894745,20.9891415 C18.6609992,21.2043591 21.9888152,18.1913132 21.9888152,14.5326146 L21.9888152,14.3173971 C22.2106696,10.443481 19.104708,7.21521756 15.1113289,7 C15.3331833,7 15.1113289,7 15.1113289,7 Z M15.3331833,17.7608781 C13.1146393,17.7608781 11.3398041,16.0391376 11.3398041,13.886962 C11.5616585,11.7347863 13.3364936,10.2282634 15.5550377,10.443481 C17.5517272,10.6586985 19.104708,12.1652214 19.104708,13.886962 C19.104708,16.0391376 17.3298729,17.7608781 15.3331833,17.7608781 Z" id="Shape"></path>
                </g>
            </g>
        </g>
    </g>
</svg>