<?xml version="1.0" encoding="UTF-8"?>
<svg width="40px" height="40px" viewBox="0 0 40 40" version="1.1" xmlns="http://www.w3.org/2000/svg" xmlns:xlink="http://www.w3.org/1999/xlink">
    <!-- Generator: Sketch 49.1 (51147) - http://www.bohemiancoding.com/sketch -->
    <title>touzi</title>
    <desc>Created with Sketch.</desc>
    <defs></defs>
    <g id="Page-1" stroke="none" stroke-width="1" fill="none" fill-rule="evenodd">
        <g id="首页-手机端" transform="translate(-169.000000, -2334.000000)" fill="#000000" fill-rule="nonzero">
            <g id="Group-11" transform="translate(84.000000, 2162.000000)">
                <g id="touzi" transform="translate(92.000000, 175.000000)">
                    <path d="M17.5991722,29.4479334 L0.397481434,29.4479334 C0.177943464,29.4479334 0,29.3155468 0,29.1526466 L0,28.3648412 C0,28.2015471 0.177972818,28.0692513 0.397481434,28.0692513 L16.6545337,28.0692513 L17.5991429,29.4479031 L17.5991722,29.4479334 Z M4.22931282,26.7531416 C4.22931282,26.9300713 4.02985294,27.0735786 3.78404321,27.0735786 L0.445504447,27.0735786 C0.199078287,27.0735786 8.80617606e-05,26.9300713 8.80617606e-05,26.7531416 L8.80617606e-05,21.2027484 C8.80617606e-05,21.0258187 0.199166349,20.8823114 0.445504447,20.8823114 L3.78407256,20.8823114 C4.02988229,20.8823114 4.22934218,21.0258187 4.22934218,21.2027484 L4.22934218,26.7531416 L4.22931282,26.7531416 Z M9.62591364,26.6066041 C9.62591364,26.8785589 9.42674729,27.0992135 9.18114304,27.0992135 L5.84184108,27.0992135 C5.59609006,27.0992135 5.39695306,26.8785892 5.39695306,26.6066041 L5.39695306,18.0686776 C5.39695306,17.7966319 5.59611941,17.5764015 5.84184108,17.5764015 L9.18114304,17.5764015 C9.426806,17.5764015 9.62591364,17.7966319 9.62591364,18.0686776 L9.62591364,26.6066041 Z M15.3389204,26.6529349 C15.3389204,27.0081276 15.1394605,27.0991529 14.8941498,27.0991529 L11.5549065,27.0991529 C11.3090968,27.0991529 11.1100185,27.0081276 11.1100185,26.6529349 L11.1100185,15.1121121 C11.1100185,14.7568892 11.3090968,14.6658941 11.5549065,14.6658941 L14.8941498,14.6658941 C15.1395192,14.6658941 15.3389204,14.7569195 15.3389204,15.1121121 L15.3389204,26.6529349 Z M16.7823407,22.9634399 L16.7823407,8.18891537 C16.7823407,7.62367358 16.9818593,7.62643101 17.2278451,7.62643101 L20.5665894,7.62643101 C20.8125165,7.62643101 21.0117122,7.62370388 21.0117122,8.18891537 C21.0117122,8.18891537 21.047025,19.3068522 21.0117122,19.7456464 C17.4102797,19.7944316 16.7823407,22.9634399 16.7823407,22.9634399 Z M19.0947251,3.57050152 L16.3038131,0 L13.1058209,3.57050152 L15.5459242,3.57050152 C14.9975049,6.19835767 12.2759562,14.9559389 0.222620131,16.2421715 C0.222620131,16.2421715 14.2418469,17.8180246 16.6712948,3.57050152 L19.0947251,3.57050152 Z M21.7730942,20.2087119 C18.886371,20.2087119 16.5461297,22.6244585 16.5461297,25.6043257 C16.5461297,28.5842232 18.8863416,31 21.7730942,31 C24.6597881,31 27,28.5842535 27,25.6043257 C27,22.6244585 24.6597881,20.2087119 21.7730942,20.2087119 Z M23.5342707,25.454546 L23.5342707,26.0804208 L22.2970323,26.0804208 L22.2970323,26.6445415 L23.5342707,26.6445415 L23.5342707,27.2703254 L22.2970323,27.2703254 L22.2970323,28.6807633 L21.170106,28.6807633 L21.170106,27.2703254 L19.9407051,27.2703254 L19.9407051,26.6445415 L21.170106,26.6445415 L21.170106,26.0804208 L19.9407051,26.0804208 L19.9407051,25.454546 L20.8864003,25.454546 L19.6018728,22.9511679 L20.8864003,22.9511982 L21.4379898,24.3616058 C21.5797986,24.7142229 21.6665395,25.0137822 21.7689846,25.3223714 L21.7847771,25.3223714 C21.8872222,25.0315388 21.9896674,24.6964966 22.1236094,24.3527275 L22.6831244,22.9511679 L23.9440221,22.9511679 L22.5964717,25.4546066 L23.5343001,25.4546066 L23.5342707,25.454546 Z" id="Shape"></path>
                </g>
            </g>
        </g>
    </g>
</svg>