<?xml version="1.0" encoding="UTF-8"?>
<svg width="40px" height="40px" viewBox="0 0 40 40" version="1.1" xmlns="http://www.w3.org/2000/svg" xmlns:xlink="http://www.w3.org/1999/xlink">
    <!-- Generator: Sketch 49.1 (51147) - http://www.bohemiancoding.com/sketch -->
    <title>tuiguan</title>
    <desc>Created with Sketch.</desc>
    <defs></defs>
    <g id="Page-1" stroke="none" stroke-width="1" fill="none" fill-rule="evenodd">
        <g id="首页-手机端" transform="translate(-169.000000, -2162.000000)" fill="#000000" fill-rule="nonzero">
            <g id="Group-11" transform="translate(84.000000, 2162.000000)">
                <g id="tuiguan" transform="translate(87.000000, 8.000000)">
                    <path d="M17.4979,5.8039801 C20.40745,5.8039801 22.76995,8.04543947 22.76995,10.7993367 C22.76995,13.5538972 20.4078,15.7950249 17.4979,15.7950249 C14.59255,15.7950249 12.2304,13.5538972 12.2304,10.7993367 C12.2304,8.04543947 14.59255,5.8039801 17.4979,5.8039801 Z M17.54795,16.6845771 C14.67235,16.6845771 12.33155,18.9008292 12.33155,21.6262023 L12.33155,24 L22.75875,24 L22.75875,21.6262023 C22.75875,18.9008292 20.4183,16.6845771 17.54795,16.6845771 Z M25.16675,5.68789386 C26.24825,7.13731343 26.8947,8.89585406 26.8947,10.7993367 C26.8947,13.054063 25.97805,15.092869 24.5126,16.6643449 L25.8727,17.9515755 C27.68255,16.0547264 28.7924,13.5505804 28.7924,10.7996683 C28.7924,8.39834163 27.9405,6.18739635 26.52685,4.40099502 L25.16675,5.68789386 Z M10.0177,5.46965174 L8.6506,4.17247098 C7.1281,5.99635158 6.20795,8.29718076 6.20795,10.7993367 C6.20795,13.652073 7.4018,16.2414594 9.32505,18.1605307 L10.6778,16.8819237 C9.09405,15.2875622 8.1053,13.1565506 8.1053,10.7993367 C8.1053,8.79303483 8.83225,6.96086235 10.0177,5.46965174 Z M30.9512,0.209618574 L29.6023,1.48623549 C31.78875,4.0305141 33.10125,7.27097844 33.10125,10.7993367 C33.10125,14.6769486 31.50805,18.2 28.92085,20.839801 L30.26205,22.1087894 C33.18875,19.1419569 35,15.1718076 35,10.7996683 C35,6.77578773 33.4768,3.08325041 30.9512,0.209618574 Z M5.59055,1.26865672 L4.2497,0 C1.60965,2.90414594 0,6.67363184 0,10.7993367 C0,15.2729685 1.89035,19.3330017 4.93885,22.319403 L6.2755,21.0497512 C3.5721,18.3887231 1.89875,14.7787728 1.89875,10.7993367 C1.89875,7.1681592 3.29105,3.84543947 5.59055,1.26865672 Z" id="Shape"></path>
                </g>
            </g>
        </g>
    </g>
</svg>