<?xml version="1.0" encoding="UTF-8"?>
<svg width="25px" height="46px" viewBox="0 0 25 46" version="1.1" xmlns="http://www.w3.org/2000/svg" xmlns:xlink="http://www.w3.org/1999/xlink">
    <!-- Generator: Sketch 49.1 (51147) - http://www.bohemiancoding.com/sketch -->
    <title>xiahua@2x</title>
    <desc>Created with Sketch.</desc>
    <defs></defs>
    <g id="Page-1" stroke="none" stroke-width="1" fill="none" fill-rule="evenodd">
        <g id="首页-手机端" transform="translate(-176.000000, -560.000000)" fill="#71B9F4">
            <g id="Group-7" transform="translate(176.000000, 550.000000)">
                <g id="xiahua">
                    <path d="M15.7367313,51.6123056 L19.8216769,40.38901 C20.083019,39.6709783 20.8769584,39.3007583 21.59499,39.5621005 C22.3130217,39.8234426 22.6832417,40.617382 22.4218995,41.3354136 L18.141138,53.0967092 C18.0181346,53.4346584 17.7771495,53.6955598 17.4816263,53.8498294 C17.2283254,54.172281 16.8348522,54.3794047 16.3930026,54.3794047 L3.87689329,54.3794047 C3.11277996,54.3794047 2.49334372,53.7599685 2.49334372,52.9958551 C2.49334372,52.2317418 3.11277996,51.6123056 3.87689329,51.6123056 L15.7367313,51.6123056 Z" id="Combined-Shape-Copy-4" transform="translate(12.493344, 46.879405) rotate(-325.000000) translate(-12.493344, -46.879405) "></path>
                    <path d="M15.7367313,33.6123056 L19.8216769,22.38901 C20.083019,21.6709783 20.8769584,21.3007583 21.59499,21.5621005 C22.3130217,21.8234426 22.6832417,22.617382 22.4218995,23.3354136 L18.141138,35.0967092 C18.0181346,35.4346584 17.7771495,35.6955598 17.4816263,35.8498294 C17.2283254,36.172281 16.8348522,36.3794047 16.3930026,36.3794047 L3.87689329,36.3794047 C3.11277996,36.3794047 2.49334372,35.7599685 2.49334372,34.9958551 C2.49334372,34.2317418 3.11277996,33.6123056 3.87689329,33.6123056 L15.7367313,33.6123056 Z" id="Combined-Shape-Copy-5" opacity="0.5" transform="translate(12.493344, 28.879405) rotate(-325.000000) translate(-12.493344, -28.879405) "></path>
                    <path d="M15.7367313,16.6123056 L19.8216769,5.38900999 C20.083019,4.67097833 20.8769584,4.30075834 21.59499,4.56210049 C22.3130217,4.82344264 22.6832417,5.61738197 22.4218995,6.33541363 L18.141138,18.0967092 C18.0181346,18.4346584 17.7771495,18.6955598 17.4816263,18.8498294 C17.2283254,19.172281 16.8348522,19.3794047 16.3930026,19.3794047 L3.87689329,19.3794047 C3.11277996,19.3794047 2.49334372,18.7599685 2.49334372,17.9958551 C2.49334372,17.2317418 3.11277996,16.6123056 3.87689329,16.6123056 L15.7367313,16.6123056 Z" id="Combined-Shape-Copy-6" opacity="0.1" transform="translate(12.493344, 11.879405) rotate(-325.000000) translate(-12.493344, -11.879405) "></path>
                </g>
            </g>
        </g>
    </g>
</svg>