<?xml version="1.0" encoding="UTF-8"?>
<svg width="40px" height="40px" viewBox="0 0 40 40" version="1.1" xmlns="http://www.w3.org/2000/svg" xmlns:xlink="http://www.w3.org/1999/xlink">
    <!-- Generator: Sketch 49.1 (51147) - http://www.bohemiancoding.com/sketch -->
    <title>yunchuanghui</title>
    <desc>Created with Sketch.</desc>
    <defs></defs>
    <g id="Page-1" stroke="none" stroke-width="1" fill="none" fill-rule="evenodd">
        <g id="首页-手机端" transform="translate(-92.000000, -4152.000000)" fill="#FFFFFF" fill-rule="nonzero">
            <g id="Group-16" transform="translate(90.000000, 4115.000000)">
                <g id="yunchuanghui" transform="translate(3.000000, 42.000000)">
                    <path d="M11.6771485,11.568359 C12.4885477,7.10589415 16.5569989,3.7033638 21.4393948,3.7033638 C21.9020515,3.7033638 22.3545259,3.74302743 22.8,3.8022178 C21.5787646,1.54505143 19.1248388,0 16.2897145,0 C12.2390823,0 8.95530189,3.14868301 8.95530185,7.03266897 C8.95530185,7.38109882 9.01130432,7.71488361 9.06221563,8.04988883 C8.50537304,7.92052435 7.93262064,7.83265413 7.33441258,7.83265413 C3.28378039,7.83387453 0,10.9825575 0,14.8665435 C0,17.0260762 1.01695368,18.9561701 2.61493286,20.2461538 C3.01458676,15.6317467 6.86284644,11.9418075 11.6771485,11.568359 Z" id="Shape"></path>
                    <path d="M30.6548101,13.8889046 C29.8830075,13.8889046 29.1539058,14.034607 28.4547584,14.2470387 C28.5204031,13.8674778 28.5764878,13.4836315 28.5764878,13.0863169 C28.5764878,9.18969557 25.2878822,6.03076923 21.2312979,6.03076923 C17.1747136,6.03076923 13.886108,9.18969557 13.886108,13.0863169 C13.886108,13.4358803 13.9421928,13.7707509 13.9931789,14.1068461 C13.435518,13.9770607 12.861924,13.8889046 12.262837,13.8889046 C8.20625269,13.8889046 4.91764706,17.0478309 4.91764706,20.9444523 C4.91764706,24.8410737 8.20625269,28 12.262837,28 L30.6548101,28 C34.7113944,28 38,24.8410737 38,20.9444523 C38,17.0472188 34.7113944,13.8889046 30.6548101,13.8889046 Z" id="Shape"></path>
                </g>
            </g>
        </g>
    </g>
</svg>