<?xml version="1.0" encoding="UTF-8"?>
<svg width="40px" height="40px" viewBox="0 0 40 40" version="1.1" xmlns="http://www.w3.org/2000/svg" xmlns:xlink="http://www.w3.org/1999/xlink">
    <!-- Generator: Sketch 49.1 (51147) - http://www.bohemiancoding.com/sketch -->
    <title>zhuangxie</title>
    <desc>Created with Sketch.</desc>
    <defs></defs>
    <g id="Page-1" stroke="none" stroke-width="1" fill="none" fill-rule="evenodd">
        <g id="首页-手机端" transform="translate(-72.000000, -2246.000000)" fill="#FFFFFF" fill-rule="nonzero">
            <g id="Group-12" transform="translate(72.000000, 2246.000000)">
                <g id="zhuangxie">
                    <path d="M12.4371291,27.0185909 C12.4371291,27.0185909 17.6720673,24.3151903 18.3750173,23.6089073 L38.9285075,4.7670613 C39.6314575,4.0607783 39.6314575,1.10788873 38.9285075,0.401605784 C38.2255574,-0.303471931 34.8379623,-0.00215666216 34.1350123,0.702921053 L15.8295226,21.0537539 C15.1277722,21.7588316 12.4371291,27.0185909 12.4371291,27.0185909 Z" id="Shape"></path>
                    <path d="M37.4577945,12.5028346 C36.2631033,12.5028346 35.2759746,13.3669745 35.0744458,14.5042551 L34.9960065,14.5042551 L34.9960065,32.8119342 C34.9960065,34.0471103 33.9956033,35.0502377 32.7610891,35.0502377 L7.06195275,35.0502377 C5.82743847,35.0502377 4.82703536,34.0483188 4.82703536,32.8119341 L4.82703536,7.07506948 C4.82703536,5.83868478 5.82743847,4.8355574 7.06195275,4.8355574 L23.9601968,4.8355574 C24.0446699,4.84522607 24.1291431,4.86093774 24.2172364,4.86093774 C25.5579455,4.86093774 26.6440284,3.77441786 26.6440284,2.43046887 C26.6440284,1.08651988 25.5591523,0 24.2172364,0 C24.189481,0 24.1629323,0.00725150557 24.1351768,0.00846011639 L24.1351769,0.00120850459 L4.82703536,0.00120850459 C2.16130509,0.00120850459 0,2.1657882 0,4.83555734 L0,35.0502377 C0,37.7200068 2.16130509,39.8845865 4.82703536,39.8845865 L34.9960065,39.8845865 C37.6617367,39.8845865 39.8230418,37.7200068 39.8230418,35.0502377 L39.8230418,15.4614561 C39.8604513,15.2898368 39.8845865,15.1145916 39.8845865,14.932095 C39.8845866,13.5893545 38.7985036,12.5028346 37.4577945,12.5028346 Z" id="Shape"></path>
                </g>
            </g>
        </g>
    </g>
</svg>